<?xml version="1.0" standalone="no"?>
<!DOCTYPE svg PUBLIC "-//W3C//DTD SVG 20010904//EN"
 "http://www.w3.org/TR/2001/REC-SVG-20010904/DTD/svg10.dtd">
<svg version="1.0" xmlns="http://www.w3.org/2000/svg"
 width="591.000000pt" height="1280.000000pt" viewBox="0 0 591.000000 1280.000000"
 preserveAspectRatio="xMidYMid meet">

<g transform="translate(0.000000,1280.000000) scale(0.100000,-0.100000)"
fill="#000000" stroke="none">
<path d="M472 12514 c-12 -8 -22 -23 -22 -32 0 -12 3 -13 12 -4 22 22 28 12
28 -48 0 -47 3 -60 15 -60 12 0 15 16 15 80 0 86 -6 94 -48 64z"/>
<path d="M580 12510 c-43 -43 -16 -150 38 -150 34 0 62 38 62 85 0 72 -57 108
-100 65z m54 -16 c16 -16 21 -59 10 -88 -7 -18 -39 -21 -49 -5 -12 19 -9 77 4
93 16 20 16 20 35 0z"/>
<path d="M798 12519 c-10 -5 -18 -17 -18 -24 0 -19 9 -19 30 0 20 19 52 9 48
-14 -2 -9 -13 -17 -26 -19 -29 -4 -29 -20 1 -24 14 -2 23 -11 25 -25 3 -18 -1
-23 -20 -23 -13 0 -29 5 -36 12 -14 14 -27 4 -19 -16 8 -21 54 -31 83 -17 26
11 33 48 13 68 -8 8 -8 17 0 31 14 26 14 28 -5 46 -18 18 -51 20 -76 5z"/>
<path d="M910 12515 c0 -11 11 -15 40 -15 22 0 40 -2 40 -5 0 -3 -14 -32 -30
-65 -24 -47 -27 -60 -15 -60 17 0 89 136 80 150 -4 6 -31 10 -61 10 -41 0 -54
-4 -54 -15z"/>
<path d="M5038 12516 c-49 -26 -50 -27 -38 -42 10 -11 16 -11 37 3 31 20 106
20 137 -1 21 -13 26 -13 36 -1 30 37 -116 72 -172 41z"/>
<path d="M710 12485 c0 -8 7 -15 15 -15 8 0 15 7 15 15 0 8 -7 15 -15 15 -8 0
-15 -7 -15 -15z"/>
<path d="M5324 12487 c-3 -8 -4 -32 -2 -53 2 -31 7 -39 23 -39 17 0 20 7 20
50 0 39 -4 50 -18 53 -9 2 -20 -3 -23 -11z"/>
<path d="M4800 12430 c0 -57 1 -60 25 -60 24 0 25 3 25 60 0 57 -1 60 -25 60
-24 0 -25 -3 -25 -60z"/>
<path d="M5055 12456 c-28 -21 -7 -43 25 -26 17 9 29 9 51 -1 34 -14 48 -6 33
19 -14 22 -83 28 -109 8z"/>
<path d="M4737 12453 c-4 -3 -7 -24 -7 -45 0 -34 3 -38 25 -38 23 0 25 4 25
45 0 37 -3 45 -18 45 -10 0 -22 -3 -25 -7z"/>
<path d="M4660 12400 c0 -25 4 -30 25 -30 21 0 25 5 25 30 0 25 -4 30 -25 30
-21 0 -25 -5 -25 -30z"/>
<path d="M710 12405 c0 -8 7 -15 15 -15 8 0 15 7 15 15 0 8 -7 15 -15 15 -8 0
-15 -7 -15 -15z"/>
<path d="M5080 12403 c0 -4 5 -15 10 -23 7 -11 14 -12 26 -5 9 6 16 15 16 20
-2 12 -52 20 -52 8z"/>
<path d="M1742 11938 c-7 -7 -12 -25 -12 -40 0 -15 -4 -28 -10 -28 -5 0 -10
-22 -10 -50 0 -44 3 -50 24 -56 14 -3 42 -3 63 0 21 3 40 5 42 6 11 1 -9 133
-23 155 -18 27 -54 33 -74 13z m56 -41 c3 -23 0 -27 -22 -27 -21 0 -26 5 -26
23 0 13 3 27 7 31 15 14 38 0 41 -27z"/>
<path d="M3270 11921 c0 -28 -2 -29 -33 -24 -24 3 -37 0 -47 -12 -18 -21 -18
-78 -1 -99 16 -19 52 -21 69 -4 9 9 12 9 12 0 0 -7 5 -12 10 -12 6 0 10 37 10
90 0 53 -4 90 -10 90 -5 0 -10 -13 -10 -29z m-10 -55 c26 -32 -7 -87 -44 -73
-16 6 -23 66 -9 80 11 12 40 8 53 -7z"/>
<path d="M461 11918 c-4 -13 -18 -49 -30 -81 -24 -67 -24 -67 -11 -67 6 0 15
11 20 25 8 20 16 25 45 25 29 0 36 -4 41 -25 3 -14 12 -25 20 -25 10 0 6 20
-16 81 -17 44 -30 82 -30 85 0 15 -32 0 -39 -18z m49 -74 c0 -2 -11 -4 -25 -4
-28 0 -30 8 -13 45 l12 26 13 -32 c7 -17 13 -33 13 -35z"/>
<path d="M5430 11932 c0 -4 18 -26 40 -47 l40 -39 -40 -41 c-53 -54 -39 -68
15 -15 l41 40 39 -40 c21 -22 43 -40 47 -40 18 0 6 26 -29 62 l-37 38 39 40
c51 52 37 66 -15 15 l-40 -39 -38 37 c-36 35 -62 47 -62 29z"/>
<path d="M2100 11916 c0 -8 -6 -17 -12 -19 -10 -4 -10 -7 -1 -14 6 -5 13 -28
15 -52 3 -44 28 -75 45 -57 4 5 2 11 -4 13 -8 3 -13 22 -13 48 0 25 5 46 13
49 10 5 10 7 0 12 -7 3 -13 12 -13 20 0 8 -7 14 -15 14 -8 0 -15 -6 -15 -14z"/>
<path d="M2890 11916 c0 -8 -6 -17 -12 -19 -10 -4 -10 -7 -1 -14 6 -5 13 -31
15 -58 3 -43 6 -50 26 -53 12 -2 22 1 22 7 0 6 -7 11 -15 11 -11 0 -15 12 -15
45 0 33 4 45 15 45 8 0 15 5 15 10 0 6 -7 10 -15 10 -8 0 -15 7 -15 15 0 8 -4
15 -10 15 -5 0 -10 -6 -10 -14z"/>
<path d="M1977 11882 c-36 -40 -9 -112 42 -112 16 0 34 7 41 15 18 21 6 29
-19 13 -15 -9 -26 -10 -38 -2 -34 21 -26 34 21 34 41 0 46 2 46 23 0 13 -5 28
-12 35 -18 18 -63 14 -81 -6z m71 -19 c2 -9 -8 -13 -33 -13 -33 0 -36 2 -25
15 15 18 51 16 58 -2z"/>
<path d="M2186 11884 c-21 -20 -20 -78 1 -99 11 -11 26 -15 45 -11 25 5 28 3
28 -19 0 -14 5 -25 10 -25 6 0 10 34 10 83 l0 84 -39 1 c-25 1 -46 -4 -55 -14z
m70 -28 c9 -38 -4 -68 -28 -64 -28 4 -42 29 -34 61 9 37 53 38 62 3z"/>
<path d="M2443 11893 c-26 -10 -12 -22 21 -16 24 4 35 1 39 -10 4 -12 -4 -17
-33 -22 -42 -7 -56 -26 -40 -55 8 -15 20 -19 55 -18 l45 2 0 44 c0 58 -14 82
-48 81 -15 0 -33 -3 -39 -6z m55 -80 c-4 -22 -48 -31 -48 -10 0 19 10 27 32
27 13 0 18 -6 16 -17z"/>
<path d="M2560 11834 c0 -77 18 -86 22 -11 3 45 6 52 26 55 19 3 22 -1 23 -35
2 -60 3 -66 16 -70 8 -3 13 13 15 49 3 46 6 53 26 56 21 3 22 0 22 -52 0 -32
4 -56 10 -56 7 0 10 24 8 63 l-3 62 -82 1 -83 1 0 -63z"/>
<path d="M2773 11893 c-7 -2 -13 -15 -13 -28 0 -18 8 -26 35 -35 19 -6 35 -16
35 -21 0 -16 -32 -23 -51 -10 -15 9 -19 8 -19 -4 0 -19 48 -31 69 -18 9 6 16
21 16 34 0 18 -8 25 -32 33 -47 13 -45 40 2 33 19 -3 35 -2 35 3 0 16 -49 25
-77 13z"/>
<path d="M2977 11882 c-21 -23 -22 -61 -1 -90 17 -25 51 -29 80 -8 25 19 12
31 -15 14 -15 -9 -26 -10 -38 -2 -34 21 -26 34 21 34 42 0 46 2 46 25 0 43
-63 61 -93 27z m71 -19 c2 -9 -8 -13 -33 -13 -33 0 -36 2 -25 15 15 18 51 16
58 -2z"/>
<path d="M3095 11890 c-1 -3 -2 -29 -1 -59 1 -74 26 -84 26 -11 0 43 3 53 20
57 31 8 23 22 -11 20 -17 -1 -32 -4 -34 -7z"/>
<path d="M3330 11885 c-10 -13 -7 -14 25 -12 50 3 55 -17 8 -29 -31 -7 -39
-14 -41 -36 -3 -29 9 -35 71 -36 26 0 27 2 27 52 0 29 -5 57 -12 64 -17 17
-63 15 -78 -3z m70 -63 c0 -14 -23 -32 -42 -32 -18 0 -25 20 -11 33 9 10 53 9
53 -1z"/>
<path d="M3450 11833 c0 -35 4 -63 10 -63 6 0 10 19 10 43 0 51 11 70 36 65
15 -2 20 -14 22 -56 4 -67 20 -67 24 1 3 45 6 52 26 55 21 3 22 0 22 -52 0
-43 3 -56 15 -56 18 0 21 63 5 104 -10 27 -52 37 -65 16 -4 -7 -11 -8 -18 -1
-7 5 -29 9 -49 8 l-38 -1 0 -63z"/>
<path d="M3726 11884 c-34 -34 -7 -114 38 -114 25 0 64 25 54 35 -3 3 -16 0
-27 -7 -29 -18 -56 0 -56 37 0 37 27 55 56 37 25 -16 37 -8 19 13 -16 20 -64
19 -84 -1z"/>
<path d="M3862 11888 c-7 -7 -12 -31 -12 -55 0 -44 17 -63 58 -63 45 0 70 80
36 114 -18 19 -65 21 -82 4z m74 -35 c9 -34 -7 -58 -37 -58 -19 0 -25 6 -27
28 -5 41 4 57 32 57 19 0 27 -7 32 -27z"/>
<path d="M3990 11834 c0 -77 18 -86 22 -11 3 45 6 52 26 55 21 3 22 0 22 -52
0 -31 5 -56 10 -56 6 0 10 19 10 43 0 51 11 70 36 65 15 -2 20 -14 22 -56 2
-28 7 -52 13 -52 14 0 11 107 -3 117 -7 4 -46 9 -85 9 l-73 1 0 -63z"/>
<path d="M312 11833 c-22 -58 -20 -82 2 -50 16 21 56 23 56 2 0 -8 7 -15 15
-15 12 0 10 11 -7 60 -12 33 -27 60 -34 60 -6 0 -21 -26 -32 -57z m36 -12
c-15 -5 -19 4 -11 24 6 18 7 18 13 -1 4 -10 3 -21 -2 -23z"/>
<path d="M2320 11840 c0 -5 16 -10 35 -10 19 0 35 5 35 10 0 6 -16 10 -35 10
-19 0 -35 -4 -35 -10z"/>
<path d="M3662 11789 c2 -6 8 -10 13 -10 5 0 11 4 13 10 2 6 -4 11 -13 11 -9
0 -15 -5 -13 -11z"/>
<path d="M225 11617 c15 -9 270 -13 1093 -15 954 -2 1072 -1 1072 13 0 13
-121 15 -1092 15 -864 -1 -1089 -3 -1073 -13z"/>
<path d="M2713 11453 c42 -2 112 -2 155 0 42 1 7 3 -78 3 -85 0 -120 -2 -77
-3z"/>
<path d="M3608 11451 c10 -6 1 -20 -33 -57 -26 -27 -64 -72 -86 -101 -21 -28
-60 -69 -85 -90 -26 -21 -74 -62 -108 -92 l-61 -53 -3 30 c-4 42 -52 82 -99
82 -48 0 -93 -45 -93 -94 0 -46 35 -87 83 -95 l36 -6 -57 -86 c-31 -47 -69
-106 -83 -130 -20 -34 -48 -58 -125 -106 -54 -34 -128 -90 -164 -125 -61 -58
-141 -164 -157 -205 -10 -27 -30 -45 -116 -106 -44 -30 -147 -122 -230 -204
-289 -283 -324 -309 -546 -409 -98 -44 -140 -94 -254 -295 -32 -56 -42 -62
-295 -150 -106 -37 -218 -82 -249 -100 -84 -51 -155 -120 -187 -183 -16 -31
-57 -90 -92 -132 -94 -113 -151 -239 -210 -464 -42 -157 -39 -269 9 -465 39
-157 77 -252 126 -313 15 -21 65 -98 110 -172 45 -74 95 -153 110 -175 16 -22
76 -112 134 -200 226 -341 334 -480 432 -554 127 -96 248 -104 655 -46 229 33
327 62 503 151 78 40 85 40 137 14 22 -11 52 -20 67 -20 l28 0 -37 25 c-41 28
-140 141 -164 186 -50 98 -69 303 -38 410 18 60 127 282 178 362 42 65 82 107
171 178 182 144 216 159 505 219 58 12 136 33 173 46 71 25 173 32 206 14 13
-6 17 -18 15 -37 -2 -15 1 -59 8 -97 10 -56 18 -76 45 -104 18 -18 33 -42 33
-53 0 -10 5 -19 10 -19 6 0 10 -8 10 -17 1 -28 25 -54 44 -47 21 8 21 -5 -1
-23 -17 -13 -16 -14 5 -10 12 3 22 1 22 -4 0 -5 7 -9 15 -9 8 0 15 -7 15 -15
0 -8 8 -15 18 -15 16 -1 16 -1 0 -14 -22 -16 -24 -38 -3 -30 11 5 15 -1 15
-19 0 -14 5 -29 11 -32 6 -4 8 -13 5 -20 -3 -9 5 -15 22 -18 l27 -3 -25 -11
c-25 -12 -24 -12 10 -13 35 -2 35 -2 8 -11 -27 -10 -46 -39 -26 -39 6 0 8 -3
5 -7 -4 -3 1 -12 12 -19 14 -10 26 -11 55 -2 25 8 40 8 47 1 7 -7 -1 -13 -26
-17 -21 -4 -49 -19 -64 -32 l-26 -25 37 21 c27 15 50 20 85 18 l48 -3 -33 -18
c-18 -10 -36 -15 -41 -13 -5 3 -15 -1 -22 -10 -11 -14 -9 -15 24 -9 32 6 36 5
31 -9 -4 -10 -1 -16 7 -16 8 0 3 -9 -11 -19 -13 -11 -28 -18 -31 -15 -4 2 -20
-9 -37 -25 -16 -16 -35 -30 -43 -31 -34 -5 -49 1 -49 20 0 11 -7 20 -15 20
-14 0 -20 13 -15 35 1 5 -2 7 -5 3 -12 -12 -64 21 -79 50 -8 15 -24 38 -35 52
-12 13 -31 39 -42 57 -11 18 -25 33 -30 33 -5 0 -9 4 -9 10 0 5 -21 37 -47 71
-27 33 -52 68 -58 77 -5 9 -16 22 -22 30 -7 7 -13 18 -13 23 0 14 -76 89 -90
89 -5 0 -10 4 -10 10 0 19 -39 32 -54 18 -12 -11 -12 -17 0 -40 8 -15 11 -33
8 -41 -5 -14 19 -74 35 -87 3 -3 50 -60 104 -127 110 -136 123 -169 83 -201
-14 -10 -22 -22 -19 -26 3 -3 1 -6 -5 -6 -7 0 -12 -7 -12 -15 0 -8 -12 -26
-26 -40 -26 -26 -49 -95 -36 -105 4 -3 7 -12 7 -20 0 -8 10 -16 22 -18 14 -2
20 -8 16 -18 -3 -8 0 -14 7 -14 6 0 8 -4 5 -10 -3 -5 1 -10 9 -10 10 0 13 -6
10 -15 -4 -8 -1 -15 5 -15 6 0 8 -7 5 -15 -4 -8 -1 -15 6 -15 6 0 8 -4 5 -10
-3 -6 1 -7 9 -4 10 4 16 1 16 -9 0 -8 6 -18 13 -21 9 -5 9 -7 0 -12 -14 -6 -8
-17 46 -71 27 -28 34 -43 34 -74 0 -21 5 -39 10 -39 6 0 3 -6 -7 -13 -18 -13
-18 -14 -1 -20 15 -6 15 -9 -6 -27 l-24 -19 26 -1 c36 0 42 -10 17 -31 l-21
-19 24 0 c36 0 53 -20 31 -36 -16 -12 -15 -13 4 -14 30 0 34 -8 19 -37 -12
-23 -12 -28 3 -39 9 -8 13 -14 7 -14 -5 0 -3 -5 5 -10 13 -8 13 -11 -2 -22
-22 -16 -40 -65 -28 -73 5 -3 7 -12 3 -20 -3 -8 0 -15 6 -15 10 0 15 17 13 45
-1 6 10 18 24 28 31 23 52 12 28 -14 -21 -24 -10 -25 15 -1 22 21 78 64 98 75
11 7 12 3 7 -20 -4 -15 -11 -33 -16 -39 -5 -8 -3 -14 7 -18 9 -3 13 -2 10 3
-3 5 -1 12 4 16 6 3 8 12 5 20 -3 7 2 25 11 38 12 19 28 27 66 32 27 4 51 11
55 16 3 5 23 9 44 9 29 0 42 5 50 19 5 11 24 22 41 26 27 6 35 3 54 -21 12
-15 27 -24 32 -21 6 4 13 2 15 -3 3 -11 59 -16 92 -8 11 3 20 13 22 22 8 59
82 154 152 198 19 11 37 28 40 37 11 27 205 205 284 262 132 93 254 147 473
212 125 37 151 42 235 40 68 -1 112 -7 153 -21 l57 -21 0 1819 c0 1682 -1
1820 -17 1828 -11 7 -14 15 -8 28 7 18 7 18 15 -1 7 -16 9 -17 9 -3 1 26 -28
50 -52 42 -20 -6 -21 -5 -7 11 14 17 13 18 -7 13 -17 -5 -23 -2 -23 10 0 13
-2 14 -9 4 -6 -11 -10 -10 -15 4 -4 10 -1 21 6 26 10 6 10 8 1 8 -7 0 -13 7
-13 15 0 9 -6 12 -17 8 -12 -5 -15 -2 -10 10 22 54 22 53 4 38 -12 -9 -17 -10
-17 -2 0 7 -5 9 -12 5 -6 -4 -8 -3 -5 3 6 10 -41 85 -62 98 -24 14 -73 97 -63
107 12 12 52 -11 53 -32 0 -10 2 -11 6 -2 8 19 23 14 23 -8 0 -11 4 -20 9 -20
5 0 7 -9 4 -20 -3 -11 -9 -17 -14 -14 -5 3 1 -11 14 -30 12 -19 36 -40 52 -46
40 -16 99 -44 105 -50 3 -3 15 -6 28 -8 l22 -3 0 275 0 276 -277 -1 c-153 0
-271 -3 -263 -6 8 -2 22 -7 30 -9 13 -5 13 -6 0 -14 -13 -8 -12 -10 3 -10 10
0 17 -8 17 -19 0 -11 7 -27 16 -36 9 -9 17 -27 17 -41 0 -13 3 -24 8 -24 5 0
9 -7 9 -16 0 -8 -4 -12 -10 -9 -5 3 -10 0 -10 -7 0 -8 10 -14 22 -15 11 -1 24
-7 28 -14 6 -8 9 -8 12 1 2 7 13 10 23 8 18 -4 18 -6 -5 -17 -20 -10 -32 -10
-55 0 -17 7 -41 14 -55 15 -14 2 -29 11 -35 20 -5 10 -18 25 -27 35 -9 9 -14
19 -12 22 3 2 -6 11 -19 20 -18 12 -26 28 -31 66 l-7 51 -847 0 c-466 0 -841
-4 -834 -9z m-446 -333 c9 -7 19 -23 23 -36 6 -20 4 -22 -18 -17 -29 8 -44 -9
-27 -30 10 -13 8 -15 -13 -15 -43 0 -62 57 -30 92 19 21 43 23 65 6z m2272
-24 c30 -30 13 -104 -24 -104 -21 0 -50 35 -50 60 0 22 28 60 45 60 7 0 21 -7
29 -16z m-1552 -3246 c2 -43 3 -78 2 -78 -1 0 -27 28 -57 63 l-56 63 42 27
c54 36 64 25 69 -75z m190 -560 c-10 -10 -44 0 -37 12 3 5 14 6 26 3 12 -3 17
-9 11 -15z m332 -426 c2 -4 -4 -13 -15 -20 -15 -10 -19 -10 -19 2 0 8 -3 22
-7 31 -5 15 -3 16 15 6 11 -6 23 -15 26 -19z m226 -296 c0 -2 -8 -10 -17 -17
-16 -13 -17 -12 -4 4 13 16 21 21 21 13z"/>
<path d="M5384 11076 c-11 -28 1 -61 22 -64 25 -4 37 19 28 54 -7 27 -41 33
-50 10z"/>
<path d="M5395 11270 c-3 -5 -1 -10 4 -10 6 0 11 5 11 10 0 6 -2 10 -4 10 -3
0 -8 -4 -11 -10z"/>
<path d="M2500 11075 l0 -95 70 0 c63 0 70 2 70 20 0 17 -7 20 -50 20 -37 0
-50 4 -50 14 0 10 14 16 42 18 31 2 44 8 46 21 3 14 -4 17 -42 17 -39 0 -46 3
-46 20 0 17 7 20 50 20 43 0 50 3 50 20 0 18 -7 20 -70 20 l-70 0 0 -95z"/>
<path d="M2764 11155 c-8 -21 4 -35 32 -35 23 0 24 -2 24 -70 0 -63 2 -70 20
-70 18 0 20 7 20 70 l0 70 30 0 c25 0 30 4 30 25 0 24 -2 25 -75 25 -57 0 -77
-4 -81 -15z"/>
<path d="M300 11125 c0 -12 20 -15 120 -15 100 0 120 3 120 15 0 13 -20 15
-120 15 -100 0 -120 -2 -120 -15z"/>
<path d="M5629 11102 c14 -26 41 -48 41 -33 0 6 -4 11 -9 11 -5 0 -11 9 -14
20 -3 11 -10 20 -16 20 -8 0 -9 -6 -2 -18z"/>
<path d="M300 11055 c0 -12 20 -15 120 -15 100 0 120 3 120 15 0 13 -20 15
-120 15 -100 0 -120 -2 -120 -15z"/>
<path d="M300 10978 c0 -16 12 -18 120 -18 108 0 120 2 120 18 0 15 -12 17
-120 17 -108 0 -120 -2 -120 -17z"/>
<path d="M3107 7207 c-3 -7 15 -44 40 -83 24 -38 48 -78 52 -89 5 -11 36 -55
70 -99 34 -43 61 -84 61 -90 0 -7 -9 -22 -19 -33 -11 -12 -17 -23 -14 -26 3
-3 -10 -10 -28 -16 -19 -5 -25 -10 -15 -10 18 -1 18 -2 3 -19 -10 -10 -17 -28
-17 -39 0 -12 -5 -23 -12 -25 -6 -2 -12 -12 -14 -22 -2 -12 2 -16 12 -12 7 3
13 2 13 -2 -4 -22 3 -32 21 -32 13 0 18 -5 14 -15 -4 -9 0 -15 10 -15 9 0 16
-7 16 -15 0 -9 6 -12 18 -9 16 5 16 5 -1 -9 -14 -12 -15 -16 -4 -26 8 -6 18
-7 22 -3 5 4 5 -1 2 -11 -6 -15 -2 -16 21 -10 24 6 25 4 14 -10 -11 -13 -10
-15 8 -10 16 4 19 2 14 -11 -4 -11 -1 -16 10 -16 11 0 15 -9 14 -33 -2 -46 9
-62 30 -45 13 11 15 10 9 -4 -3 -10 -2 -20 3 -23 6 -4 10 -1 10 4 0 19 19 12
36 -14 9 -14 16 -48 17 -80 2 -54 3 -56 27 -51 14 3 19 3 13 0 -7 -3 -13 -14
-13 -24 0 -13 6 -17 23 -14 12 2 16 2 10 -2 -7 -3 -13 -12 -13 -20 0 -8 -7
-14 -15 -14 -21 0 -19 -30 3 -31 10 0 12 -3 4 -6 -26 -10 0 -21 28 -10 24 9
32 8 50 -8 12 -11 24 -15 28 -10 4 6 13 11 21 13 10 2 12 -4 8 -20 -6 -23 -6
-23 15 2 11 14 23 25 27 26 21 3 62 26 67 37 12 33 -233 516 -321 632 -17 22
-62 92 -100 155 -83 139 -144 221 -187 251 -18 14 -28 17 -24 8 4 -7 -1 -5
-11 6 -33 38 -50 47 -56 32z"/>
<path d="M4001 7156 c-7 -8 -5 -12 9 -13 24 -2 35 13 16 20 -8 3 -19 0 -25 -7z"/>
<path d="M4043 7123 c-18 -9 -33 -20 -33 -25 0 -15 19 -8 47 17 33 28 30 30
-14 8z"/>
<path d="M5615 7043 c-35 -7 -169 -55 -200 -71 -39 -19 -81 -52 -67 -52 6 0
23 6 39 14 156 77 219 97 308 97 66 1 122 -11 173 -37 38 -18 57 -10 27 12
-48 35 -199 55 -280 37z"/>
<path d="M5379 6904 c-4 -18 -6 -40 -8 -59 -1 -18 -45 -46 -76 -49 -5 -1 -16
-7 -23 -13 -7 -7 -20 -13 -28 -13 -8 0 -14 -4 -14 -8 0 -5 -18 -16 -40 -26
-22 -10 -40 -22 -40 -27 0 -5 -7 -9 -17 -9 -19 0 -21 -1 -138 -117 -146 -143
-166 -214 -98 -346 43 -82 49 -149 20 -208 -48 -97 -187 -229 -372 -353 -182
-122 -567 -290 -782 -342 -96 -23 -122 -26 -242 -22 l-134 5 -33 -30 c-19 -16
-33 -36 -32 -44 2 -9 -5 -19 -14 -24 -10 -5 -26 -14 -35 -19 -53 -31 -105 -50
-163 -59 -77 -13 -179 -43 -162 -49 7 -2 34 1 60 7 26 5 75 8 108 6 40 -3 51
-2 34 4 l-25 8 27 7 c29 8 158 -8 186 -24 9 -5 33 -16 52 -25 l35 -16 -24 19
c-34 27 -38 62 -8 63 12 0 16 3 10 6 -17 6 -16 40 1 46 7 3 19 0 26 -6 10 -9
11 -9 5 1 -5 10 3 9 26 -4 19 -9 38 -23 42 -31 6 -10 12 -11 21 -4 7 6 32 10
56 9 30 -1 46 4 55 15 14 19 35 23 35 6 0 -5 4 -7 10 -4 10 6 54 -39 56 -58 1
-7 3 -23 4 -37 2 -24 2 -24 8 -3 10 32 35 13 33 -23 -1 -16 -1 -61 -1 -101 0
-83 -13 -128 -36 -119 -8 3 -17 -1 -20 -8 -3 -8 -17 -17 -32 -21 -22 -5 -31
-1 -50 22 -13 15 -21 21 -17 13 5 -8 15 -23 23 -32 8 -10 11 -18 7 -18 -4 0
-1 -8 7 -17 29 -32 79 -147 81 -185 1 -21 5 -38 8 -38 11 0 29 -51 28 -78 -1
-29 -3 -24 -14 22 -3 15 -8 26 -11 24 -2 -3 3 -42 11 -86 9 -45 14 -101 11
-124 -3 -25 -2 -38 4 -32 5 5 14 61 20 124 26 272 44 322 197 535 257 357 524
634 870 902 155 120 212 152 273 152 45 1 110 -37 179 -104 71 -69 120 -95
173 -94 48 1 61 8 126 72 106 103 215 287 266 450 25 81 26 96 26 296 0 134
-4 211 -10 211 -5 0 -10 9 -10 19 0 16 -8 20 -37 23 -21 2 -38 8 -38 13 -1 36
-35 44 -98 22 -27 -10 -55 -11 -102 -5 -53 7 -68 6 -81 -6 -8 -8 -21 -13 -29
-10 -8 4 -15 1 -15 -5 0 -6 -3 -10 -7 -10 -5 1 -10 0 -13 -1 -3 -1 -17 -4 -32
-6 -22 -4 -28 -1 -28 14 0 20 -29 52 -31 36z m-2029 -1784 c8 -5 12 -11 10
-14 -3 -2 -14 2 -24 10 -22 15 -10 19 14 4z"/>
<path d="M2826 6884 c27 -28 74 -56 74 -45 0 18 -36 50 -64 57 -29 7 -29 7
-10 -12z"/>
<path d="M4568 6413 c-8 -10 -14 -29 -13 -43 3 -36 -13 -76 -26 -63 -7 7 -26
5 -61 -8 -28 -10 -55 -16 -59 -13 -5 3 -9 1 -9 -3 0 -5 -16 -9 -35 -10 -20 -1
-43 -7 -52 -15 -9 -7 -18 -12 -20 -10 -2 2 -18 0 -36 -3 -37 -7 -157 -116
-157 -143 0 -5 -5 -12 -10 -14 -6 -2 -13 -21 -17 -42 -6 -36 -3 -42 28 -68 34
-29 30 -39 -5 -13 -11 8 -27 15 -35 15 -11 0 -8 -5 8 -16 27 -19 18 -32 -27
-36 -17 -1 -32 -6 -32 -11 0 -5 -11 -7 -24 -5 -13 3 -31 -1 -41 -8 -13 -10
-23 -10 -38 -3 -15 9 -18 8 -12 -2 6 -9 3 -11 -8 -6 -11 4 -14 2 -10 -9 3 -8
13 -13 22 -10 9 2 39 7 66 11 151 20 318 75 463 152 80 43 82 46 82 81 0 20 6
48 13 62 20 39 47 126 48 157 1 15 6 41 12 56 12 34 5 43 -15 20z m-163 -163
c6 -10 -7 -14 -33 -11 -8 1 -20 -3 -28 -10 -8 -6 -14 -9 -14 -6 0 4 -23 -5
-51 -19 -49 -25 -89 -57 -89 -70 0 -4 -8 -14 -18 -23 -10 -9 -21 -24 -25 -33
-3 -10 -11 -18 -16 -18 -5 0 -2 18 7 39 9 22 20 37 24 34 5 -2 8 3 8 11 0 8 6
21 14 28 37 36 68 59 74 54 3 -3 11 -1 18 5 7 6 34 14 61 19 26 4 51 8 55 9 4
0 10 -3 13 -9z"/>
<path d="M3164 6405 c-4 -10 -2 -26 4 -36 8 -13 8 -20 1 -25 -7 -4 -7 -10 -1
-16 6 -6 8 -16 6 -23 -3 -6 3 -18 12 -26 16 -12 17 -12 12 1 -4 11 1 16 14 17
14 1 24 -7 31 -28 8 -20 18 -29 34 -29 14 0 23 -6 23 -16 0 -8 5 -12 11 -9 6
4 13 -2 16 -14 3 -11 9 -18 14 -15 5 3 9 -2 9 -10 0 -10 6 -13 16 -9 14 5 15
3 5 -15 -15 -27 -14 -32 4 -32 21 0 19 -20 -2 -22 -95 -8 -118 -4 -172 34 -29
21 -79 47 -109 58 -30 12 -72 34 -93 51 -25 20 -40 26 -45 18 -5 -8 -9 -7 -15
2 -6 11 -11 11 -21 1 -12 -12 -1 -16 40 -15 17 1 15 -4 -9 -30 l-22 -22 6 22
c3 14 1 21 -7 20 -18 -3 -26 -21 -13 -29 16 -10 -50 -68 -69 -61 -10 4 -12 0
-7 -13 5 -13 3 -16 -9 -12 -8 4 -28 -2 -44 -13 -18 -11 -23 -19 -13 -19 8 0
20 5 27 12 7 7 12 8 12 2 0 -5 -10 -18 -21 -28 -18 -15 -23 -15 -30 -5 -6 10
-9 8 -9 -8 0 -23 23 -32 35 -13 4 6 12 5 21 -4 19 -19 18 -32 -1 -16 -13 11
-18 10 -29 -6 -14 -18 -15 -18 -35 5 -12 13 -24 21 -28 17 -4 -4 -1 -11 7 -16
8 -5 11 -12 7 -16 -3 -4 -13 -1 -22 6 -16 13 -18 6 -6 -24 7 -17 8 -17 23 -2
21 20 28 20 28 0 0 -8 5 -12 10 -9 6 3 10 1 10 -5 0 -7 -8 -9 -20 -5 -21 7
-28 -10 -7 -18 8 -3 6 -7 -6 -12 -12 -5 -24 0 -37 15 -11 13 -20 26 -20 29 0
3 -5 13 -10 21 -8 12 -16 8 -45 -25 -19 -22 -35 -43 -35 -47 0 -14 -30 4 -30
18 0 8 -7 17 -15 20 -8 4 -15 12 -15 19 0 8 -5 17 -11 20 -5 4 -3 -10 6 -32 9
-21 20 -39 25 -41 11 -4 14 -32 4 -32 -4 0 -13 8 -20 18 -13 16 -13 16 -14 0
0 -24 -17 -23 -25 2 -4 11 -11 18 -16 14 -5 -3 0 -17 11 -31 11 -14 20 -32 20
-39 0 -8 6 -14 13 -14 7 0 4 -7 -7 -15 -19 -14 -19 -15 0 -37 10 -13 26 -30
35 -38 23 -22 32 -50 13 -43 -7 3 -14 11 -14 18 0 16 -28 40 -37 32 -3 -4 2
-18 11 -32 25 -38 9 -30 -37 20 -49 52 -63 58 -39 15 9 -16 21 -30 25 -30 5 0
5 -4 2 -10 -3 -5 -2 -10 3 -10 5 0 0 -19 -11 -41 -19 -38 -19 -42 -4 -51 10
-5 17 -16 17 -23 0 -8 7 -15 15 -15 8 0 15 -7 15 -16 0 -12 -12 -5 -42 22 -24
21 -50 47 -58 58 -26 37 -67 76 -79 76 -6 0 -11 5 -11 10 0 6 -7 10 -15 10 -8
0 -15 5 -15 11 0 5 -4 8 -9 5 -5 -4 -12 0 -14 6 -4 8 -6 7 -6 -4 -1 -9 6 -24
15 -33 9 -9 13 -19 10 -22 -4 -4 -18 5 -32 20 -14 15 -30 27 -37 27 -7 -1 -2
-9 11 -19 12 -11 22 -24 22 -30 0 -6 5 -11 11 -11 6 0 9 -7 5 -15 -4 -11 1
-15 18 -15 22 0 22 -2 15 -56 -4 -31 -9 -57 -11 -59 -2 -2 -21 5 -42 16 -22
10 -43 19 -48 19 -17 0 -67 43 -61 53 3 6 2 7 -4 4 -5 -4 -48 7 -94 23 -46 17
-93 30 -105 30 -30 0 -48 -48 -40 -102 6 -36 13 -47 46 -67 21 -14 37 -28 34
-33 -5 -8 72 -60 152 -103 26 -14 40 -25 31 -25 -20 0 -239 114 -275 142 -7 6
-15 8 -18 5 -3 -3 18 -21 48 -40 58 -37 118 -92 118 -107 0 -13 52 -65 73 -73
10 -4 16 -11 12 -16 -3 -5 5 -13 17 -17 22 -7 26 -9 70 -48 14 -13 46 -33 70
-46 23 -12 54 -28 68 -36 14 -7 35 -14 47 -14 12 0 34 -11 49 -24 l28 -23 -21
-26 c-11 -15 -22 -25 -25 -24 -2 1 4 -5 14 -15 10 -9 18 -19 18 -22 0 -14
-130 -5 -192 13 -73 21 -97 16 -45 -8 70 -34 80 -46 72 -88 -5 -21 -7 -42 -6
-47 1 -5 -2 -22 -8 -37 -9 -28 2 -52 12 -27 4 9 6 10 6 1 1 -6 -3 -15 -9 -18
-5 -3 -10 -11 -10 -17 0 -7 6 -6 15 2 8 7 15 17 15 22 0 5 38 54 85 110 46 56
82 105 79 110 -3 5 -1 7 4 6 6 -2 48 34 94 79 54 52 107 93 145 112 34 17 74
41 89 54 16 13 40 30 52 36 18 10 22 18 18 36 -5 20 26 56 229 258 129 130
235 242 235 251 0 9 5 16 10 16 6 0 10 7 10 15 0 8 5 15 10 15 6 0 16 12 23
28 6 15 16 33 22 40 16 21 86 86 101 95 23 13 17 22 -43 65 -68 48 -90 70
-141 138 -44 61 -77 99 -120 138 -28 26 -32 27 -38 11z m-174 -219 c0 -3 -4
-8 -10 -11 -5 -3 -10 -1 -10 4 0 6 5 11 10 11 6 0 10 -2 10 -4z m-140 -86 c0
-5 -5 -10 -11 -10 -5 0 -7 5 -4 10 3 6 8 10 11 10 2 0 4 -4 4 -10z m0 -84 c0
-3 -4 -8 -10 -11 -5 -3 -10 -1 -10 4 0 6 5 11 10 11 6 0 10 -2 10 -4z m-159
-66 c36 -33 41 -42 30 -52 -11 -11 -13 -10 -8 5 4 10 3 16 -3 12 -9 -6 -70 51
-70 66 0 15 7 11 51 -31z m-20 -41 c30 -30 37 -49 19 -49 -5 0 -10 -7 -10 -15
0 -8 5 -15 12 -15 6 0 8 -3 4 -7 -4 -4 -18 5 -32 20 -38 41 -67 57 -92 50 -27
-7 -28 -14 -2 -33 22 -16 26 -30 10 -30 -6 0 -19 13 -28 30 -9 16 -24 30 -31
30 -13 0 -13 2 -2 13 11 10 14 9 18 -1 3 -9 12 -7 33 8 15 11 35 17 44 14 17
-7 22 11 6 21 -6 4 -7 11 -4 17 4 7 10 4 16 -6 5 -9 23 -30 39 -47z m-50 -58
c15 -16 25 -31 23 -34 -5 -5 -64 47 -64 57 0 13 14 5 41 -23z m-42 -53 c6 -17
11 -33 11 -34 0 -2 -13 10 -30 28 -35 36 -38 48 -11 41 11 -3 25 -19 30 -35z
m38 -4 c-9 -10 -38 16 -31 28 4 6 13 4 22 -6 9 -8 13 -19 9 -22z m60 -4 c2
-18 0 -18 -13 -6 -17 18 -18 26 -1 26 7 0 13 -9 14 -20z m-27 -25 c10 -12 10
-15 -2 -15 -8 0 -15 7 -15 15 0 8 1 15 2 15 2 0 8 -7 15 -15z m-320 -65 c0 -5
-2 -10 -4 -10 -3 0 -8 5 -11 10 -3 6 -1 10 4 10 6 0 11 -4 11 -10z m174 -4
c-3 -8 -12 -17 -20 -20 -11 -4 -12 -2 -1 14 14 23 29 27 21 6z m46 4 c0 -5 -4
-10 -10 -10 -5 0 -10 5 -10 10 0 6 5 10 10 10 6 0 10 -4 10 -10z m20 -166 c0
-14 -3 -14 -15 -4 -8 7 -15 14 -15 16 0 2 7 4 15 4 8 0 15 -7 15 -16z m-80
-494 c0 -5 -4 -10 -10 -10 -5 0 -10 5 -10 10 0 6 5 10 10 10 6 0 10 -4 10 -10z
m-144 -159 c17 13 17 13 0 -12 -12 -20 -23 -25 -38 -21 -21 5 -21 6 -2 13 19
7 19 8 -1 8 -16 1 -17 3 -5 11 9 6 17 5 21 -2 6 -9 12 -8 25 3z m-41 -51 c-3
-5 -11 -10 -16 -10 -6 0 -7 5 -4 10 3 6 11 10 16 10 6 0 7 -4 4 -10z"/>
<path d="M2627 5913 c-3 -3 5 -16 19 -30 26 -26 39 -27 29 -2 -7 17 -41 40
-48 32z"/>
<path d="M4195 6311 c-46 -35 -57 -38 -48 -14 6 15 1 14 -28 -5 -23 -14 -33
-28 -32 -42 2 -11 -6 -25 -17 -32 -11 -7 -20 -17 -20 -21 0 -5 14 1 30 13 23
16 28 25 21 34 -14 17 -1 29 16 14 11 -9 12 -7 6 7 -5 15 -3 17 11 12 10 -4
19 -7 22 -7 2 0 1 -7 -2 -15 -4 -10 0 -15 11 -15 13 0 16 6 11 24 -5 20 -1 26
16 32 13 4 26 11 29 17 4 5 12 6 19 2 8 -5 3 -13 -17 -27 -27 -19 -27 -19 -3
-12 14 3 27 9 30 13 3 3 11 6 18 7 27 2 32 4 32 15 0 7 -9 9 -22 6 -13 -4 -26
0 -32 9 -10 13 -17 11 -51 -15z"/>
<path d="M4333 6333 c-13 -2 -23 -9 -23 -14 0 -13 13 -11 36 6 10 8 17 14 14
13 -3 0 -15 -3 -27 -5z"/>
<path d="M4405 6323 c-11 -2 -29 -8 -40 -13 -11 -4 -41 -14 -67 -20 -26 -7
-53 -19 -59 -26 -15 -18 -1 -18 36 2 17 9 46 18 65 20 58 6 101 18 101 29 1
12 -10 14 -36 8z"/>
<path d="M2890 6299 c0 -18 -2 -19 -15 -9 -13 11 -14 10 -9 -6 4 -10 11 -25
17 -31 7 -9 5 -13 -7 -13 -9 0 -15 5 -13 11 1 6 -4 14 -11 16 -11 4 -12 1 -3
-16 12 -21 7 -41 -9 -41 -5 0 -12 9 -15 20 -3 11 -10 20 -15 20 -12 0 0 -32
14 -42 8 -5 7 -11 -2 -20 -15 -15 -16 -28 -2 -28 6 0 10 5 10 11 0 19 44 53
49 38 2 -7 -4 -18 -13 -25 -10 -6 -13 -15 -8 -18 14 -9 41 31 35 53 -3 12 -1
21 5 21 6 0 8 9 5 19 -3 11 1 21 9 23 11 2 10 7 -4 21 -17 16 -18 16 -18 -4z"/>
<path d="M4076 6295 c-11 -8 -15 -15 -10 -15 6 0 19 7 30 15 10 8 15 14 9 14
-5 0 -19 -6 -29 -14z"/>
<path d="M3965 6229 c-11 -16 -1 -19 13 -3 7 8 8 14 3 14 -5 0 -13 -5 -16 -11z"/>
<path d="M4129 6202 c-40 -41 -89 -113 -89 -131 0 -17 23 17 36 52 3 9 11 17
16 17 5 0 16 7 24 15 9 8 12 15 8 15 -4 0 8 14 26 30 18 17 27 30 19 29 -8 0
-26 -12 -40 -27z"/>
<path d="M3955 6180 c-3 -5 -1 -10 4 -10 6 0 11 -10 11 -22 1 -21 2 -21 11 -5
7 13 6 21 -5 32 -9 9 -17 11 -21 5z"/>
<path d="M4016 6164 c-6 -15 -4 -15 11 -3 10 7 20 15 22 16 2 2 -3 3 -11 3 -9
0 -19 -7 -22 -16z"/>
<path d="M4045 6157 c-10 -8 -14 -17 -9 -20 6 -3 15 3 22 14 14 23 12 24 -13
6z"/>
<path d="M2677 6141 c3 -12 9 -21 14 -21 14 0 11 16 -5 29 -12 10 -13 8 -9 -8z"/>
<path d="M2764 6144 c5 -12 1 -14 -16 -8 -16 5 -20 3 -15 -10 3 -8 2 -18 -3
-21 -6 -4 -10 -12 -10 -18 1 -7 5 -6 13 4 7 8 25 24 40 34 21 13 25 20 15 26
-20 13 -31 10 -24 -7z"/>
<path d="M3895 6150 c3 -5 8 -10 11 -10 2 0 4 5 4 10 0 6 -5 10 -11 10 -5 0
-7 -4 -4 -10z"/>
<path d="M2650 6133 c0 -6 9 -20 20 -33 11 -13 20 -20 20 -16 0 4 -9 19 -20
33 -11 14 -20 21 -20 16z"/>
<path d="M3990 6121 c-6 -12 -7 -21 -1 -21 10 0 24 30 17 37 -2 3 -9 -5 -16
-16z"/>
<path d="M3886 6115 c-3 -9 -6 -24 -5 -33 0 -9 5 -4 10 12 9 32 6 48 -5 21z"/>
<path d="M2010 6068 c0 -76 9 -85 53 -55 l37 25 -36 41 c-20 23 -40 41 -45 41
-5 0 -9 -24 -9 -52z"/>
<path d="M2652 6076 c7 -8 15 -12 17 -11 5 6 -10 25 -20 25 -5 0 -4 -6 3 -14z"/>
<path d="M3960 6086 c0 -2 7 -7 16 -10 8 -3 12 -2 9 4 -6 10 -25 14 -25 6z"/>
<path d="M3850 6060 c0 -5 5 -10 11 -10 5 0 7 5 4 10 -3 6 -8 10 -11 10 -2 0
-4 -4 -4 -10z"/>
<path d="M2406 6032 c-3 -5 1 -15 9 -22 16 -14 20 -3 6 19 -5 8 -11 9 -15 3z"/>
<path d="M3821 6024 c0 -11 3 -14 6 -6 3 7 2 16 -1 19 -3 4 -6 -2 -5 -13z"/>
<path d="M2580 6021 c0 -10 19 -25 25 -20 1 2 -3 10 -11 17 -8 7 -14 8 -14 3z"/>
<path d="M3875 6020 c3 -5 8 -10 11 -10 2 0 4 5 4 10 0 6 -5 10 -11 10 -5 0
-7 -4 -4 -10z"/>
<path d="M3995 6020 c-3 -6 1 -7 9 -4 18 7 21 14 7 14 -6 0 -13 -4 -16 -10z"/>
<path d="M2477 5995 c8 -24 32 -49 39 -42 3 2 -6 18 -21 33 -19 22 -23 24 -18
9z"/>
<path d="M2560 6001 c0 -6 4 -13 10 -16 6 -3 7 1 4 9 -7 18 -14 21 -14 7z"/>
<path d="M3846 5993 c-6 -14 -5 -15 5 -6 7 7 10 15 7 18 -3 3 -9 -2 -12 -12z"/>
<path d="M4617 5992 c-23 -25 -21 -32 6 -32 30 0 62 24 53 38 -11 18 -41 14
-59 -6z"/>
<path d="M2400 5971 c0 -5 5 -13 10 -16 6 -3 10 -2 10 4 0 5 -4 13 -10 16 -5
3 -10 2 -10 -4z"/>
<path d="M2320 5960 c0 -5 5 -10 11 -10 5 0 7 5 4 10 -3 6 -8 10 -11 10 -2 0
-4 -4 -4 -10z"/>
<path d="M2360 5957 c0 -13 39 -46 44 -38 7 10 -19 41 -35 41 -5 0 -9 -2 -9
-3z"/>
<path d="M2428 5933 c6 -2 12 -11 12 -19 0 -8 4 -14 8 -14 11 0 35 -51 28 -57
-7 -7 -30 18 -39 40 -7 18 -27 24 -27 7 0 -5 5 -10 11 -10 6 0 9 -6 6 -12 -2
-7 -10 -12 -16 -10 -16 3 -14 -13 3 -27 11 -10 15 -8 18 6 3 19 5 17 47 -37
11 -14 23 -21 28 -17 4 5 0 14 -10 21 -19 14 -23 36 -7 36 15 0 12 16 -5 34
-8 8 -15 19 -15 25 0 14 -29 41 -43 40 -9 0 -8 -2 1 -6z"/>
<path d="M3687 5900 c-9 -13 -17 -33 -17 -44 0 -10 -15 -33 -33 -50 -18 -17
-53 -53 -77 -80 l-45 -49 34 17 c92 48 201 118 196 127 -4 5 -3 9 2 8 23 -4
22 4 -5 29 -17 15 -32 36 -34 47 -3 19 -4 19 -21 -5z"/>
<path d="M2370 5891 c0 -6 5 -13 10 -16 6 -3 10 1 10 9 0 9 -4 16 -10 16 -5 0
-10 -4 -10 -9z"/>
<path d="M2306 5881 c-4 -7 -5 -15 -2 -18 9 -9 19 4 14 18 -4 11 -6 11 -12 0z"/>
<path d="M3815 5870 c-3 -5 -1 -10 4 -10 6 0 11 5 11 10 0 6 -2 10 -4 10 -3 0
-8 -4 -11 -10z"/>
<path d="M2295 5840 c-3 -5 -1 -10 4 -10 6 0 11 5 11 10 0 6 -2 10 -4 10 -3 0
-8 -4 -11 -10z"/>
<path d="M1923 5828 c-25 -32 -24 -38 4 -38 15 0 35 5 43 10 13 9 12 12 -4 25
-24 18 -31 19 -43 3z"/>
<path d="M2196 5831 c-3 -5 1 -11 9 -14 9 -4 12 -1 8 9 -6 16 -10 17 -17 5z"/>
<path d="M2330 5830 c0 -5 5 -10 10 -10 6 0 10 5 10 10 0 6 -4 10 -10 10 -5 0
-10 -4 -10 -10z"/>
<path d="M4342 5818 c-7 -7 -12 -20 -12 -30 0 -14 8 -18 35 -18 39 0 55 21 35
45 -15 18 -42 19 -58 3z"/>
<path d="M5873 5777 c-42 -57 -128 -143 -199 -197 -32 -25 -60 -48 -62 -52 -2
-3 -11 -15 -20 -26 -9 -11 -26 -33 -37 -48 -11 -15 -41 -51 -66 -78 -94 -103
-390 -464 -534 -651 -38 -49 -116 -146 -175 -215 -58 -69 -148 -181 -199 -250
-149 -199 -236 -281 -376 -357 -67 -37 -61 -44 11 -13 66 29 175 111 225 171
48 57 70 65 40 13 -14 -22 -23 -56 -24 -89 -2 -49 -3 -52 -23 -44 -12 4 -25 5
-29 1 -3 -3 -3 1 1 11 3 9 10 17 15 17 5 0 9 5 9 12 0 6 -11 1 -25 -12 -13
-12 -22 -26 -20 -30 2 -4 -20 -36 -50 -72 -52 -63 -71 -93 -42 -70 7 6 29 14
48 16 40 6 49 8 109 25 34 10 49 10 63 1 21 -13 78 -4 89 14 5 6 8 2 8 -11 0
-13 3 -23 8 -24 12 -1 203 -10 262 -12 52 -2 108 -26 93 -40 -3 -4 1 -7 9 -7
9 0 18 -10 21 -22 5 -16 9 -19 19 -10 9 7 19 7 28 2 10 -6 20 -4 32 7 10 8 29
15 43 15 14 1 25 4 25 8 0 15 99 41 118 31 11 -6 33 -6 55 -1 36 8 37 7 37
-23 0 -17 -7 -38 -16 -48 -14 -16 -14 -18 5 -28 12 -7 18 -17 15 -26 -4 -9 0
-15 9 -15 22 0 31 -18 17 -35 -8 -9 -8 -15 -2 -15 6 0 12 4 14 10 3 11 192 80
218 80 10 0 42 13 73 30 31 16 62 27 70 24 8 -3 17 2 20 10 4 9 14 16 22 16
12 0 7 -8 -13 -25 -17 -14 -38 -25 -47 -25 -9 0 -19 -9 -22 -19 -3 -11 -15
-22 -26 -26 -19 -6 -16 -8 18 -15 22 -4 42 -6 44 -4 2 2 -1 4 -7 4 -7 0 -12 4
-12 9 0 13 50 20 74 11 18 -6 13 -11 -34 -35 -30 -15 -57 -31 -60 -35 -3 -4
-45 -27 -95 -51 -49 -24 -92 -46 -95 -50 -3 -4 -27 -17 -55 -29 -61 -27 -134
-72 -135 -83 0 -4 11 -5 25 -1 22 5 25 3 25 -20 0 -14 5 -26 10 -26 6 0 10 12
10 28 l0 27 20 -25 c17 -22 19 -23 14 -4 -7 28 21 39 48 20 18 -13 23 -13 35
0 17 16 33 18 33 4 0 -5 19 -3 42 6 22 8 42 13 44 12 1 -2 0 -16 -3 -31 -5
-27 -8 -28 -42 -24 -20 3 -29 3 -20 1 10 -3 20 -15 23 -27 10 -37 7 -39 -18
-10 -23 26 -25 27 -32 9 -4 -10 -2 -27 5 -37 9 -16 8 -19 -9 -19 -19 0 -20 -1
-4 -25 15 -23 15 -25 0 -31 -19 -7 -22 -34 -3 -34 7 0 18 5 25 12 8 8 15 8 25
-1 14 -11 66 -10 122 3 23 6 27 5 15 -3 -11 -9 9 -11 82 -9 l98 3 0 473 0 472
-42 -6 c-24 -3 -63 -9 -88 -14 -25 -5 -65 -12 -89 -16 -33 -5 -55 -17 -90 -50
-34 -33 -43 -46 -33 -53 10 -6 4 -10 -20 -15 -43 -8 -166 -44 -198 -58 -23
-10 -143 -40 -213 -55 -15 -3 -33 0 -40 6 -15 12 -28 12 -187 8 -58 -1 -125 3
-150 9 -45 11 -55 11 -99 -2 -22 -7 -22 -5 9 42 41 61 110 117 181 144 30 12
61 28 69 35 22 19 142 72 235 105 44 15 110 42 148 59 37 17 75 31 84 31 9 0
35 -18 58 -39 53 -48 90 -57 198 -44 45 5 124 7 175 4 l92 -6 0 798 c0 438 -1
797 -3 797 -2 0 -17 -19 -34 -43z m-753 -1991 c0 -7 -11 -21 -24 -29 -22 -15
-25 -15 -38 0 -11 14 -10 16 8 11 14 -3 25 1 33 13 13 22 21 24 21 5z m467
-522 c-3 -3 -12 -4 -19 -1 -8 3 -5 6 6 6 11 1 17 -2 13 -5z"/>
<path d="M2170 5799 c0 -5 5 -7 10 -4 6 3 10 8 10 11 0 2 -4 4 -10 4 -5 0 -10
-5 -10 -11z"/>
<path d="M2320 5800 c0 -5 5 -10 11 -10 5 0 7 5 4 10 -3 6 -8 10 -11 10 -2 0
-4 -4 -4 -10z"/>
<path d="M2401 5789 c-2 -49 -5 -67 -13 -63 -4 3 -8 1 -8 -4 0 -6 7 -12 15
-16 10 -4 14 1 13 17 -1 12 1 31 5 42 4 11 3 26 -2 34 -7 11 -9 8 -10 -10z"/>
<path d="M2366 5793 c-11 -11 -7 -20 9 -20 8 0 15 4 15 8 0 11 -16 20 -24 12z"/>
<path d="M2355 5750 c3 -5 10 -10 16 -10 5 0 9 5 9 10 0 6 -7 10 -16 10 -8 0
-12 -4 -9 -10z"/>
<path d="M2425 5740 c-3 -5 1 -10 9 -10 9 0 16 5 16 10 0 6 -4 10 -9 10 -6 0
-13 -4 -16 -10z"/>
<path d="M4977 5722 c-22 -24 -22 -61 0 -69 10 -4 23 2 35 17 36 45 3 94 -35
52z"/>
<path d="M2445 5710 c-3 -5 -1 -10 4 -10 6 0 11 5 11 10 0 6 -2 10 -4 10 -3 0
-8 -4 -11 -10z"/>
<path d="M2415 5680 c3 -5 8 -10 11 -10 2 0 4 5 4 10 0 6 -5 10 -11 10 -5 0
-7 -4 -4 -10z"/>
<path d="M2180 5669 c0 -5 5 -7 10 -4 6 3 10 8 10 11 0 2 -4 4 -10 4 -5 0 -10
-5 -10 -11z"/>
<path d="M1823 5662 c-27 -4 -29 -14 -8 -32 18 -15 45 -6 45 14 0 19 -9 23
-37 18z"/>
<path d="M2262 5643 c-2 -25 -1 -26 14 -11 9 9 13 21 10 27 -12 19 -22 12 -24
-16z"/>
<path d="M4034 5655 c-9 -22 4 -35 35 -35 35 0 56 21 39 38 -17 17 -68 15 -74
-3z"/>
<path d="M2233 5653 c-17 -6 -17 -33 0 -33 7 0 13 9 14 20 1 11 1 20 0 19 -1
0 -8 -3 -14 -6z"/>
<path d="M2260 5595 c0 -8 4 -15 9 -15 5 0 11 7 15 15 3 9 0 15 -9 15 -8 0
-15 -7 -15 -15z"/>
<path d="M1811 5518 l-24 -43 32 34 c19 19 29 37 24 42 -5 5 -19 -9 -32 -33z"/>
<path d="M3721 5528 c-1 -12 6 -18 19 -18 14 0 18 5 13 16 -4 11 -8 12 -13 4
-6 -9 -9 -9 -13 1 -4 10 -6 9 -6 -3z"/>
<path d="M1483 5503 c-24 -9 -13 -28 22 -39 30 -10 35 -9 35 5 0 31 -27 47
-57 34z"/>
<path d="M4706 5491 c-23 -25 -18 -65 10 -69 28 -4 46 20 42 55 -4 34 -28 41
-52 14z"/>
<path d="M3410 5456 c0 -2 9 -6 20 -9 11 -3 18 -1 14 4 -5 9 -34 13 -34 5z"/>
<path d="M1054 5363 c-10 -49 -13 -53 -29 -46 -12 4 -16 1 -14 -13 2 -10 -6
-33 -17 -51 -20 -31 -36 -32 -47 -3 -4 12 -6 12 -6 -2 -1 -9 4 -20 9 -23 15
-9 12 -25 -4 -19 -8 3 -16 -4 -20 -20 -3 -14 -11 -26 -17 -26 -8 0 -7 5 1 15
7 9 10 18 7 22 -4 3 -1 13 6 22 11 14 10 14 -5 2 -10 -7 -18 -18 -18 -23 0
-17 -69 -100 -188 -227 -126 -134 -378 -384 -409 -406 -22 -16 -255 -85 -284
-85 -15 0 -19 -7 -19 -37 l0 -38 122 3 c182 4 284 27 435 98 50 24 103 46 117
50 14 3 26 10 26 14 0 4 7 7 16 6 9 0 19 5 22 13 3 8 0 11 -7 7 -6 -4 -11 -2
-11 3 0 6 7 11 15 11 9 0 29 29 50 73 71 149 168 323 319 571 34 57 48 105 26
91 -5 -3 -10 3 -10 14 0 13 -5 19 -14 15 -8 -3 -17 -1 -21 5 -11 19 -24 12
-31 -16z"/>
<path d="M3137 5333 c-4 -3 -7 -15 -7 -26 0 -19 1 -19 20 -2 11 10 17 22 14
26 -6 11 -18 12 -27 2z"/>
<path d="M4380 5279 c0 -5 5 -7 10 -4 6 3 10 8 10 11 0 2 -4 4 -10 4 -5 0 -10
-5 -10 -11z"/>
<path d="M4463 5248 c-27 -35 -18 -78 18 -78 26 0 47 45 32 68 -13 22 -37 26
-50 10z"/>
<path d="M1314 5235 c-8 -20 13 -45 38 -45 27 0 35 30 13 46 -25 18 -44 18
-51 -1z"/>
<path d="M2860 5077 c-25 -6 -38 -12 -30 -14 8 -2 35 3 60 11 53 16 35 19 -30
3z"/>
<path d="M1160 4974 c0 -14 23 -24 52 -24 13 0 18 6 16 17 -4 19 -68 25 -68 7z"/>
<path d="M4242 4968 c-18 -18 -15 -66 6 -77 39 -21 66 24 42 70 -12 22 -30 25
-48 7z"/>
<path d="M2252 4855 c0 -16 2 -22 5 -12 2 9 2 23 0 30 -3 6 -5 -1 -5 -18z"/>
<path d="M2528 4848 c-23 -35 -60 -110 -56 -113 2 -2 20 28 40 66 37 68 44 90
16 47z"/>
<path d="M2246 4787 c3 -10 9 -15 12 -12 3 3 0 11 -7 18 -10 9 -11 8 -5 -6z"/>
<path d="M2246 4745 c4 -8 10 -12 15 -9 11 6 2 24 -11 24 -5 0 -7 -7 -4 -15z"/>
<path d="M1035 4740 c-9 -14 -6 -17 25 -22 17 -2 25 2 25 12 0 18 -40 26 -50
10z"/>
<path d="M2226 4709 c2 -4 -1 -9 -8 -11 -9 -3 -9 -6 -1 -11 7 -4 16 1 22 11 7
14 6 19 -4 19 -8 0 -12 -4 -9 -8z"/>
<path d="M2190 4691 c0 -7 -5 -9 -12 -4 -7 4 -5 -5 4 -19 15 -22 15 -27 3 -32
-9 -3 -12 -12 -9 -23 5 -15 4 -15 -4 -3 -6 8 -9 17 -6 21 2 4 1 10 -4 13 -4 2
-8 -4 -9 -14 -1 -11 2 -22 8 -25 5 -4 9 -11 9 -17 0 -6 -8 -4 -18 5 -20 19
-34 13 -25 -9 3 -8 0 -14 -7 -14 -6 0 -8 -4 -5 -10 3 -5 0 -10 -8 -10 -7 0
-24 -12 -38 -26 -24 -26 -24 -27 -1 -15 19 10 25 9 40 -5 9 -10 16 -19 15 -21
-2 -2 -9 -16 -18 -32 -8 -17 -20 -33 -26 -36 -6 -4 -4 7 5 23 9 17 16 39 16
49 -1 14 -7 11 -30 -15 -19 -21 -30 -43 -30 -62 0 -20 -5 -30 -15 -30 -8 0
-15 9 -15 20 0 19 -1 19 -22 2 -12 -9 -32 -28 -46 -42 -13 -14 -31 -24 -39
-22 -9 2 -12 -1 -8 -7 3 -6 -1 -11 -9 -11 -8 0 -24 -12 -35 -26 l-21 -27 0 25
c0 14 9 37 20 51 22 28 25 37 10 37 -20 0 -50 -64 -44 -92 6 -28 -13 -58 -35
-58 -6 0 -11 -4 -11 -10 0 -5 -7 -10 -15 -10 -8 0 -15 -4 -15 -10 0 -5 -6 -10
-13 -10 -7 0 -19 -8 -28 -17 -8 -10 -41 -36 -72 -58 -32 -22 -92 -68 -135
-101 -42 -34 -113 -80 -156 -103 -84 -43 -84 -52 -1 -25 72 24 112 42 152 70
44 30 64 21 26 -13 -47 -41 -132 -103 -142 -103 -5 0 -11 -4 -13 -8 -1 -5 -28
-20 -58 -35 -30 -14 -48 -26 -40 -26 8 0 51 17 95 39 44 22 84 40 88 40 5 0
18 12 29 26 11 14 27 23 34 20 8 -3 13 -2 13 2 -3 21 3 24 15 6 16 -21 3 -49
-17 -37 -5 3 -7 1 -4 -5 13 -20 -177 -162 -218 -162 -8 0 -16 -4 -20 -9 -9
-15 45 3 122 40 37 18 74 32 82 30 7 -1 10 2 6 8 -3 7 3 11 15 11 12 0 18 -4
15 -10 -3 -5 -1 -10 4 -10 6 0 11 -19 10 -42 0 -24 -3 -38 -5 -31 -8 17 -54
-31 -54 -56 0 -11 -6 -21 -12 -21 -7 0 -29 -17 -48 -37 -49 -52 -74 -70 -88
-65 -7 2 -15 -3 -18 -12 -3 -9 -10 -13 -15 -10 -5 3 -12 -2 -15 -10 -3 -9 -12
-16 -19 -16 -7 0 -24 -6 -38 -13 -21 -11 -24 -16 -14 -27 10 -10 8 -10 -11 -1
-18 10 -27 10 -38 1 -7 -7 -12 -16 -9 -20 3 -4 -2 -13 -9 -19 -9 -8 -17 -8
-20 -2 -3 5 0 11 6 14 7 2 1 4 -13 3 -18 -1 -25 -5 -21 -15 3 -9 1 -12 -6 -7
-6 3 -29 0 -52 -8 -22 -8 -50 -12 -60 -9 -11 3 -20 1 -20 -5 0 -5 -10 -10 -22
-10 -40 1 -101 -11 -111 -21 -7 -7 -15 -4 -24 7 -12 14 -14 14 -10 1 6 -18
-21 -22 -41 -6 -9 7 -11 5 -6 -8 7 -16 3 -17 -32 -12 -23 4 -33 3 -25 -2 33
-21 -336 -31 -561 -16 l-118 7 0 -29 c0 -26 5 -31 38 -41 22 -7 101 -12 178
-12 139 -1 229 -3 464 -13 99 -4 142 -1 210 14 47 10 111 24 143 31 31 6 57
15 57 20 0 4 9 8 19 8 11 0 40 9 66 20 26 11 55 20 65 20 10 0 25 7 34 15 8 8
26 15 40 15 14 0 26 4 26 9 0 5 15 11 33 15 56 11 117 38 117 52 0 9 12 14 35
14 19 0 35 5 35 11 0 7 10 9 25 7 14 -3 25 -2 25 2 0 4 12 7 28 8 41 0 85 13
104 30 10 8 24 12 33 9 8 -4 15 -2 15 4 0 10 32 7 83 -7 11 -4 17 0 17 12 0
12 3 14 13 5 10 -8 17 -7 25 1 9 9 22 8 53 -2 34 -11 44 -12 62 -1 15 10 22
11 25 2 2 -6 8 -11 13 -11 6 0 8 4 5 8 -3 5 9 8 27 8 63 -1 177 15 219 30 24
8 55 16 70 16 16 1 25 5 21 11 -4 6 0 8 9 4 38 -14 22 12 -60 97 -100 105
-167 195 -212 287 -46 96 -60 162 -60 291 0 132 21 225 76 330 21 40 30 69 24
73 -5 3 -10 11 -10 17 0 6 7 5 18 -3 16 -13 16 -13 2 6 -8 11 -16 22 -17 24
-2 2 -3 -1 -3 -8z m-42 -135 c-7 -8 -15 -12 -17 -11 -5 6 10 25 20 25 5 0 4
-6 -3 -14z m-558 -600 c0 -2 -8 -10 -17 -17 -16 -13 -17 -12 -4 4 13 16 21 21
21 13z"/>
<path d="M4040 4681 c-14 -28 -13 -38 11 -62 16 -16 23 -18 35 -8 26 21 10 89
-21 89 -8 0 -19 -9 -25 -19z"/>
<path d="M2436 4645 c-3 -9 -6 -22 -5 -28 0 -7 5 -1 10 12 5 13 8 26 5 28 -2
2 -6 -3 -10 -12z"/>
<path d="M1191 4543 c-10 -26 -10 -27 4 -9 8 11 15 23 15 28 0 15 -7 8 -19
-19z"/>
<path d="M921 4504 c6 -8 18 -14 26 -14 20 0 8 16 -17 23 -17 4 -19 3 -9 -9z"/>
<path d="M2411 4494 c0 -11 3 -14 6 -6 3 7 2 16 -1 19 -3 4 -6 -2 -5 -13z"/>
<path d="M1140 4440 c-6 -12 -9 -24 -7 -27 3 -2 11 5 17 17 6 12 9 24 7 27 -3
2 -11 -5 -17 -17z"/>
<path d="M1855 4430 c-3 -5 1 -10 9 -10 9 0 16 5 16 10 0 6 -4 10 -9 10 -6 0
-13 -4 -16 -10z"/>
<path d="M3940 4386 c0 -37 21 -62 45 -52 19 7 19 30 -1 61 -24 36 -44 32 -44
-9z"/>
<path d="M860 4361 c0 -11 48 -51 61 -51 15 0 10 26 -9 43 -20 18 -52 23 -52
8z"/>
<path d="M1102 4310 c0 -14 2 -19 5 -12 2 6 2 18 0 25 -3 6 -5 1 -5 -13z"/>
<path d="M1005 4179 c-4 -6 -5 -12 -2 -15 2 -3 7 2 10 11 7 17 1 20 -8 4z"/>
<path d="M3782 4040 c0 -14 3 -45 7 -70 6 -34 9 -37 9 -15 1 17 -3 48 -7 70
-6 25 -9 31 -9 15z"/>
<path d="M741 4010 c0 -8 8 -42 19 -74 11 -33 20 -81 20 -108 0 -35 4 -48 13
-45 14 4 12 38 -8 118 -16 64 -43 132 -44 109z"/>
<path d="M3788 3847 c-4 -31 -16 -72 -27 -91 -23 -37 -25 -46 -12 -46 17 0 52
111 49 154 -3 38 -3 37 -10 -17z"/>
<path d="M4084 3846 c-10 -8 -17 -17 -14 -19 3 -3 16 3 30 13 29 22 14 27 -16
6z"/>
<path d="M1084 3838 c-3 -4 4 -8 15 -8 12 0 21 4 21 8 0 5 -7 9 -15 9 -9 0
-18 -4 -21 -9z"/>
<path d="M1034 3829 c-9 -15 -2 -18 20 -9 17 6 18 7 3 13 -9 3 -19 2 -23 -4z"/>
<path d="M880 3800 c-13 -8 -12 -10 3 -10 9 0 17 5 17 10 0 12 -1 12 -20 0z"/>
<path d="M4004 3795 c-18 -13 -18 -14 4 -8 12 3 25 9 28 14 8 14 -10 11 -32
-6z"/>
<path d="M1218 3763 c7 -3 16 -2 19 1 4 3 -2 6 -13 5 -11 0 -14 -3 -6 -6z"/>
<path d="M1168 3753 c7 -3 16 -2 19 1 4 3 -2 6 -13 5 -11 0 -14 -3 -6 -6z"/>
<path d="M3871 3739 c-24 -11 -42 -22 -39 -24 6 -6 98 32 98 40 0 8 -12 5 -59
-16z"/>
<path d="M820 3730 c8 -5 20 -10 25 -10 6 0 3 5 -5 10 -8 5 -19 10 -25 10 -5
0 -3 -5 5 -10z"/>
<path d="M3223 3683 c9 -2 25 -2 35 0 9 3 1 5 -18 5 -19 0 -27 -2 -17 -5z"/>
<path d="M3355 3680 l-80 -6 85 -1 c47 0 99 3 115 7 l30 8 -35 -1 c-19 0 -71
-4 -115 -7z"/>
<path d="M1238 3673 c7 -3 16 -2 19 1 4 3 -2 6 -13 5 -11 0 -14 -3 -6 -6z"/>
<path d="M5255 3553 c-11 -2 -27 -7 -35 -10 -8 -4 -19 -7 -24 -7 -8 -1 -22
-26 -14 -26 2 0 37 11 78 24 51 17 65 24 45 24 -16 0 -39 -2 -50 -5z"/>
<path d="M5135 3510 c-3 -5 -1 -10 4 -10 6 0 11 5 11 10 0 6 -2 10 -4 10 -3 0
-8 -4 -11 -10z"/>
<path d="M3624 3242 c-22 -14 -31 -48 -25 -95 7 -59 25 -66 29 -12 2 22 9 44
15 48 9 6 9 10 0 14 -15 6 -17 33 -3 33 6 0 10 5 10 10 0 12 -11 13 -26 2z"/>
<path d="M1775 3215 c-14 -13 -25 -36 -25 -50 0 -30 41 -75 67 -75 30 0 63 29
63 56 0 19 -5 24 -25 24 -14 0 -25 -4 -25 -10 0 -5 7 -10 15 -10 19 0 19 -14
0 -30 -27 -22 -65 3 -65 43 0 54 35 74 72 40 25 -22 36 -8 13 17 -24 27 -61
25 -90 -5z"/>
<path d="M2248 3165 c4 -81 19 -102 24 -33 2 31 8 44 20 46 13 3 17 -6 20 -40
4 -50 22 -58 26 -11 5 47 -14 76 -44 69 -21 -6 -24 -3 -24 19 0 14 -6 25 -12
25 -10 0 -12 -20 -10 -75z"/>
<path d="M2037 3208 c-2 -7 -1 -33 2 -57 6 -43 32 -74 48 -57 4 4 0 12 -10 17
-23 13 -24 69 0 69 14 0 14 3 -5 20 -25 23 -28 24 -35 8z"/>
<path d="M2168 3208 c-3 -7 -3 -32 0 -55 4 -44 23 -70 43 -57 8 5 7 9 -5 16
-22 12 -22 68 1 68 14 0 14 3 -5 20 -25 23 -28 24 -34 8z"/>
<path d="M2962 3200 c-7 -12 -8 -20 -2 -20 5 0 10 -18 10 -40 0 -39 21 -64 38
-45 4 4 1 10 -5 12 -17 6 -17 70 -1 75 9 3 8 9 -4 21 -21 21 -21 21 -36 -3z"/>
<path d="M3340 3203 c-10 -12 -11 -18 -2 -21 7 -2 12 -21 12 -43 0 -27 5 -42
15 -46 21 -7 32 4 17 19 -16 16 -15 65 0 70 9 3 8 9 -4 21 -20 20 -19 20 -38
0z"/>
<path d="M1927 3182 c-36 -40 -3 -101 48 -88 35 9 32 27 -4 20 -20 -4 -30 -2
-34 10 -5 13 1 16 33 16 44 0 52 16 24 44 -21 21 -47 20 -67 -2z m53 -12 c0
-5 -9 -10 -20 -10 -11 0 -20 5 -20 10 0 6 9 10 20 10 11 0 20 -4 20 -10z"/>
<path d="M2386 3184 c-9 -8 -16 -26 -16 -39 0 -45 53 -72 79 -41 10 12 6 14
-20 13 -18 -1 -34 4 -36 11 -3 8 7 12 31 12 42 0 50 10 30 38 -18 26 -46 28
-68 6z m54 -14 c0 -5 -12 -10 -26 -10 -14 0 -23 4 -19 10 3 6 15 10 26 10 10
0 19 -4 19 -10z"/>
<path d="M2548 3158 c-4 -44 6 -83 15 -58 4 8 7 29 9 45 5 48 32 39 36 -12 2
-24 7 -43 12 -43 5 0 10 19 12 43 2 34 7 42 23 42 16 0 21 -8 23 -42 2 -24 7
-43 13 -43 14 0 11 88 -3 97 -7 4 -41 8 -75 9 l-61 0 -4 -38z"/>
<path d="M2746 3184 c-21 -21 -20 -57 2 -77 24 -22 45 -21 65 1 32 35 11 92
-33 92 -10 0 -26 -7 -34 -16z m59 -15 c4 -5 4 -21 1 -35 -5 -19 -12 -25 -29
-22 -37 5 -36 68 2 68 11 0 23 -5 26 -11z"/>
<path d="M2860 3185 c-15 -17 -6 -33 26 -45 25 -10 33 -30 11 -30 -7 0 -18 5
-24 11 -7 7 -13 7 -17 0 -9 -14 31 -33 54 -26 30 10 26 51 -5 59 -14 4 -25 11
-25 17 0 7 10 9 27 4 23 -5 25 -4 14 9 -17 20 -45 20 -61 1z"/>
<path d="M3106 3184 c-21 -21 -20 -57 2 -77 24 -22 45 -21 65 1 32 35 11 92
-33 92 -10 0 -26 -7 -34 -16z m59 -39 c0 -23 -5 -31 -22 -33 -17 -3 -24 3 -29
22 -8 32 3 48 29 44 17 -2 22 -10 22 -33z"/>
<path d="M3220 3156 c0 -52 18 -73 49 -56 14 7 21 7 21 0 0 -5 5 -10 10 -10 6
0 10 25 10 55 0 30 -4 55 -10 55 -5 0 -10 -15 -10 -32 0 -42 -13 -63 -34 -55
-11 4 -16 19 -16 47 0 22 -4 40 -10 40 -5 0 -10 -20 -10 -44z"/>
<path d="M3486 3184 c-41 -40 7 -109 59 -86 20 9 25 19 25 46 0 51 -50 75 -84
40z m62 -37 c4 -33 -22 -47 -45 -24 -22 21 -8 59 20 55 16 -2 23 -11 25 -31z"/>
<path d="M3720 3196 c0 -2 9 -24 20 -50 16 -35 18 -50 10 -66 -8 -15 -8 -20 2
-20 11 0 27 32 65 128 12 28 -19 9 -31 -20 l-14 -32 -16 32 c-9 18 -21 32 -26
32 -6 0 -10 -2 -10 -4z"/>
<path d="M3850 3180 c-11 -11 -20 -27 -20 -35 0 -21 36 -55 58 -55 24 0 52 31
52 57 0 23 -30 53 -53 53 -9 0 -26 -9 -37 -20z m59 -19 c13 -24 -9 -57 -33
-48 -16 6 -22 47 -9 60 12 13 32 7 42 -12z"/>
<path d="M3972 3148 l3 -53 43 -1 42 -1 0 54 c0 29 -4 53 -10 53 -5 0 -10 -12
-10 -26 0 -36 -17 -64 -35 -58 -10 4 -15 20 -15 45 0 21 -5 39 -11 39 -6 0 -9
-21 -7 -52z"/>
<path d="M4090 3144 c0 -41 4 -54 15 -54 11 0 15 11 15 39 0 25 5 41 15 45 25
9 17 23 -15 24 -30 1 -30 0 -30 -54z"/>
<path d="M5426 3191 c-12 -5 -15 -10 -9 -14 6 -4 16 0 23 8 14 17 13 17 -14 6z"/>
<path d="M2987 3043 c-4 -3 -7 -17 -7 -30 0 -20 -4 -22 -24 -17 -46 11 -77
-56 -39 -87 9 -8 31 -14 50 -14 l33 0 0 78 c0 77 -1 83 -13 70z m-12 -98 c0
-23 -4 -30 -20 -30 -21 0 -31 25 -21 51 11 28 41 12 41 -21z"/>
<path d="M3288 3008 c-3 -7 -3 -32 0 -55 4 -44 23 -70 43 -57 8 5 7 9 -5 16
-22 12 -22 68 1 68 14 0 14 3 -5 20 -25 23 -28 24 -34 8z"/>
<path d="M2570 2929 c0 -39 4 -69 10 -69 6 0 11 12 11 28 2 28 4 58 7 80 1 8
11 12 25 10 17 -2 22 -10 22 -33 0 -24 -5 -31 -23 -33 -23 -4 -21 -22 3 -22
23 0 45 30 45 60 0 34 -12 43 -62 46 l-38 2 0 -69z"/>
<path d="M2704 2991 c-9 -9 -3 -101 6 -101 6 0 10 14 10 30 0 17 9 39 20 50
11 11 20 21 20 23 0 4 -51 2 -56 -2z"/>
<path d="M2796 2984 c-21 -21 -20 -57 2 -77 24 -22 45 -21 65 1 32 35 11 92
-33 92 -10 0 -26 -7 -34 -16z m59 -15 c4 -5 4 -21 1 -35 -5 -19 -12 -25 -29
-22 -37 5 -36 68 2 68 11 0 23 -5 26 -11z"/>
<path d="M3040 2956 c0 -50 12 -63 58 -63 l32 0 0 54 c0 63 -18 72 -22 11 -2
-35 -7 -43 -23 -43 -16 0 -21 8 -23 43 -4 55 -22 54 -22 -2z"/>
<path d="M3176 2984 c-37 -36 -2 -103 47 -90 14 3 27 13 31 21 6 17 -9 21 -19
5 -10 -17 -43 -11 -50 9 -13 41 24 68 53 39 9 -9 12 -8 12 4 0 29 -49 37 -74
12z"/>
<path d="M2605 2518 c-3 -13 -4 -79 -3 -148 2 -102 6 -125 18 -125 10 0 14 10
14 30 -1 17 -2 83 -3 148 0 69 -5 117 -11 117 -5 0 -12 -10 -15 -22z"/>
<path d="M1914 2507 c-2 -7 -3 -69 -2 -138 l3 -124 83 -3 c68 -2 82 0 82 13 0
12 -13 15 -65 15 l-65 0 0 50 0 50 50 0 c38 0 50 4 50 15 0 11 -12 15 -50 15
l-50 0 0 45 0 45 60 0 c47 0 60 3 60 15 0 20 -148 22 -156 2z"/>
<path d="M2415 2435 c-19 -11 -31 -12 -33 -6 -2 6 -10 11 -18 11 -12 0 -14
-22 -12 -132 2 -94 7 -133 16 -136 8 -2 12 11 12 47 0 54 4 59 34 36 30 -23
65 -18 97 14 23 24 29 38 29 75 0 78 -63 123 -125 91z m77 -32 c23 -21 25 -95
2 -117 -33 -33 -89 -18 -104 28 -11 35 0 83 23 98 20 13 60 9 79 -9z"/>
<path d="M2754 2440 c-31 -12 -54 -55 -54 -100 0 -90 99 -133 161 -71 52 53
34 147 -33 170 -36 13 -45 13 -74 1z m90 -42 c38 -53 9 -128 -49 -128 -40 0
-65 29 -65 75 0 46 25 75 65 75 24 0 39 -7 49 -22z"/>
<path d="M3008 2436 c-16 -8 -28 -11 -28 -5 0 5 -7 9 -15 9 -12 0 -15 -18 -15
-101 0 -76 3 -100 13 -97 7 3 13 30 15 74 3 69 19 104 49 104 7 0 13 7 13 15
0 18 1 18 -32 1z"/>
<path d="M3135 2436 c-96 -42 -57 -196 49 -196 24 0 76 35 76 51 0 15 -27 10
-34 -6 -7 -18 -76 -21 -94 -3 -7 7 -12 22 -12 35 0 22 4 23 70 23 l70 0 0 29
c0 59 -65 94 -125 67z m85 -35 c18 -35 12 -41 -45 -41 -41 0 -55 4 -55 14 0
43 80 64 100 27z"/>
<path d="M3471 2437 c-58 -34 -69 -120 -22 -168 64 -64 161 -19 161 75 0 79
-75 129 -139 93z m93 -39 c38 -53 9 -128 -49 -128 -40 0 -65 29 -65 75 0 46
25 75 65 75 24 0 39 -7 49 -22z"/>
<path d="M3967 2435 c-15 -8 -27 -10 -27 -4 0 5 -7 9 -15 9 -12 0 -15 -18 -15
-100 0 -82 3 -100 15 -100 12 0 15 14 15 70 0 57 4 74 20 90 11 11 27 20 35
20 8 0 15 4 15 9 0 18 -16 20 -43 6z"/>
<path d="M2160 2394 l32 -45 -29 -42 c-45 -67 -45 -67 -29 -67 9 0 28 18 42
40 15 22 29 40 33 40 3 0 17 -18 31 -40 14 -22 30 -40 37 -40 19 0 16 8 -18
62 l-31 48 26 40 c30 45 31 50 13 50 -7 0 -21 -13 -30 -30 -23 -38 -34 -38
-55 0 -9 16 -25 30 -35 30 -15 0 -13 -7 13 -46z"/>
<path d="M3670 2360 c0 -67 3 -83 20 -100 24 -24 57 -26 88 -4 20 14 22 14 22
0 0 -9 7 -16 15 -16 12 0 15 18 15 100 0 82 -3 100 -15 100 -12 0 -15 -14 -15
-69 0 -81 -15 -104 -64 -99 l-31 3 -3 83 c-2 64 -6 82 -17 82 -12 0 -15 -17
-15 -80z"/>
<path d="M2270 1890 c0 -127 2 -150 15 -150 12 0 15 15 15 74 0 81 13 106 53
106 40 0 46 -13 49 -95 2 -52 7 -80 16 -83 15 -5 17 149 2 178 -14 26 -56 33
-91 16 l-29 -14 0 59 c0 46 -3 59 -15 59 -13 0 -15 -23 -15 -150z"/>
<path d="M2103 1940 c-61 -25 -44 -85 30 -107 41 -12 48 -17 45 -36 -2 -17
-11 -23 -40 -25 -29 -3 -38 1 -43 17 -7 23 -20 27 -31 9 -11 -17 43 -58 77
-58 35 0 69 31 69 64 0 29 -14 41 -66 55 -44 12 -60 31 -41 50 16 16 57 14 63
-4 8 -19 34 -20 34 -1 0 30 -58 52 -97 36z"/>
<path d="M2545 1936 c-72 -31 -72 -151 0 -184 40 -18 71 -14 104 14 27 22 31
32 31 74 0 82 -64 127 -135 96z m87 -33 c23 -21 24 -89 1 -115 -20 -23 -76
-24 -94 -1 -22 25 -18 102 5 119 26 19 65 18 88 -3z"/>
<path d="M2788 1939 c-28 -11 -58 -62 -58 -99 0 -53 49 -100 104 -100 24 0 76
35 76 51 0 15 -27 10 -34 -6 -7 -19 -79 -21 -93 -2 -6 6 -13 22 -16 35 -5 21
-3 22 74 22 l79 0 -6 28 c-9 36 -32 72 -47 72 -6 0 -21 2 -32 5 -11 2 -32 -1
-47 -6z m80 -31 c7 -7 12 -20 12 -30 0 -15 -9 -18 -55 -18 -41 0 -55 4 -55 14
0 38 70 62 98 34z"/>
<path d="M3133 1943 c-57 -11 -83 -115 -43 -166 38 -49 122 -44 150 9 19 34 6
41 -21 10 -27 -31 -78 -35 -102 -8 -21 23 -22 81 -1 110 20 29 78 31 96 2 13
-20 38 -28 38 -11 0 34 -65 64 -117 54z"/>
<path d="M3340 1938 c-28 -15 -40 -48 -17 -48 8 0 18 7 21 16 4 10 16 14 38
12 27 -2 34 -8 36 -29 3 -24 0 -27 -42 -31 -56 -7 -76 -22 -76 -59 0 -50 51
-75 100 -49 13 7 21 7 25 0 17 -27 25 -2 25 79 0 62 -4 92 -13 100 -23 18 -70
22 -97 9z m80 -121 c0 -32 -18 -47 -56 -47 -38 0 -48 19 -28 49 11 14 26 21
50 21 29 0 34 -3 34 -23z"/>
<path d="M3586 1935 c-23 -12 -31 -13 -37 -3 -17 27 -22 -1 -20 -114 1 -45 5
-78 11 -78 6 0 10 24 10 54 0 72 16 115 46 122 13 3 24 12 24 20 0 17 1 17
-34 -1z"/>
<path d="M3711 1936 c-91 -51 -52 -196 53 -196 24 0 76 35 76 51 0 14 -26 11
-40 -6 -15 -18 -74 -20 -88 -2 -5 6 -13 22 -16 35 -7 21 -6 22 68 22 69 0 76
2 76 20 0 35 -22 69 -53 80 -38 13 -46 12 -76 -4z m89 -35 c18 -35 12 -41 -45
-41 -46 0 -55 3 -55 18 0 27 20 42 57 42 22 0 36 -6 43 -19z"/>
<path d="M2570 1390 c0 -127 2 -150 15 -150 13 0 15 23 15 150 0 127 -2 150
-15 150 -13 0 -15 -23 -15 -150z"/>
<path d="M3067 1524 c-14 -14 -7 -35 11 -32 9 2 17 10 17 17 0 16 -18 25 -28
15z"/>
<path d="M2920 1465 c0 -16 -6 -25 -15 -25 -8 0 -15 -4 -15 -10 0 -5 7 -10 15
-10 12 0 15 -15 15 -74 0 -81 15 -110 53 -104 31 5 33 28 3 28 -26 0 -26 1
-26 75 0 73 1 75 25 75 14 0 25 5 25 10 0 6 -11 10 -25 10 -20 0 -25 5 -25 25
0 16 -6 25 -15 25 -9 0 -15 -9 -15 -25z"/>
<path d="M2161 1438 c-13 -7 -29 -20 -34 -29 -16 -26 15 -65 56 -73 41 -8 60
-27 51 -50 -9 -24 -70 -21 -84 4 -13 24 -30 26 -30 5 0 -26 38 -55 73 -55 75
0 102 85 35 110 -74 27 -79 30 -76 48 4 23 66 30 74 8 6 -16 34 -23 34 -8 0
35 -61 60 -99 40z"/>
<path d="M2374 1441 c-76 -33 -85 -143 -14 -184 41 -25 75 -21 112 11 27 25
31 36 31 76 0 37 -5 53 -24 71 -27 28 -74 39 -105 26z m81 -41 c41 -45 12
-130 -45 -130 -42 0 -62 21 -64 67 -1 73 66 111 109 63z"/>
<path d="M3213 1440 c-13 -5 -32 -24 -43 -42 -28 -45 -21 -94 20 -130 92 -84
216 50 133 142 -30 33 -75 45 -110 30z m80 -35 c22 -22 30 -70 16 -97 -16 -30
-28 -38 -60 -38 -35 0 -61 31 -61 75 0 20 8 45 18 56 20 23 67 25 87 4z"/>
<path d="M3470 1443 c-8 -3 -19 -11 -23 -17 -6 -8 -10 -7 -14 2 -2 6 -11 12
-19 12 -12 0 -14 -17 -12 -97 2 -66 7 -98 16 -101 9 -3 12 14 12 60 0 79 16
112 55 116 42 5 55 -19 55 -105 0 -58 3 -73 15 -73 23 0 21 150 -2 178 -19 23
-59 34 -83 25z"/>
<path d="M3673 1440 c-29 -12 -43 -40 -33 -66 6 -15 26 -28 60 -39 43 -14 51
-21 48 -38 -5 -33 -61 -36 -82 -5 -13 18 -18 20 -28 9 -18 -18 33 -61 73 -61
35 0 69 31 69 64 0 29 -14 41 -66 55 -42 11 -55 25 -47 49 6 17 58 15 73 -3
16 -19 30 -19 30 -1 0 30 -58 52 -97 36z"/>
<path d="M2672 1358 c4 -69 8 -84 28 -100 27 -22 58 -23 88 -2 20 14 22 14 22
0 0 -9 7 -16 15 -16 12 0 15 18 15 100 0 82 -3 100 -15 100 -12 0 -15 -14 -15
-63 0 -75 -18 -107 -60 -107 -39 0 -50 23 -50 104 0 54 -3 66 -16 66 -14 0
-16 -11 -12 -82z"/>
<path d="M3060 1340 c0 -82 3 -100 15 -100 12 0 15 18 15 100 0 82 -3 100 -15
100 -12 0 -15 -18 -15 -100z"/>
<path d="M2890 945 c-13 -14 -19 -25 -13 -25 6 0 13 7 17 15 15 39 26 7 29
-82 l3 -98 2 98 c1 53 5 97 9 97 3 0 16 -8 27 -17 15 -13 14 -10 -3 10 -30 33
-41 34 -71 2z"/>
<path d="M5272 940 c-14 -22 -17 -187 -3 -208 4 -7 21 -14 37 -16 22 -2 30 -9
32 -27 2 -13 9 -30 14 -36 14 -17 209 -18 226 -1 17 17 16 212 0 226 -7 5 -24
12 -38 14 -18 2 -26 10 -29 28 -1 14 -8 28 -15 32 -6 4 -56 8 -111 8 -89 0
-102 -2 -113 -20z m226 -22 l3 -28 -68 0 c-40 0 -74 -5 -81 -12 -7 -7 -12 -40
-12 -80 l0 -68 -30 0 -30 0 0 103 c0 57 3 107 7 111 4 4 52 5 107 4 l101 -3 3
-27z m66 -44 c13 -5 16 -24 16 -105 0 -87 -2 -100 -19 -109 -25 -13 -182 -11
-198 2 -17 14 -18 189 -1 206 13 13 173 17 202 6z"/>
<path d="M422 867 l-62 -62 65 -65 c35 -35 67 -62 69 -59 3 3 -21 32 -54 64
l-60 59 62 63 c34 35 58 63 53 63 -6 0 -38 -29 -73 -63z"/>
<path d="M4050 918 c-24 -13 -25 -16 -25 -128 0 -97 2 -114 15 -111 41 12 94
12 115 1 19 -10 27 -10 47 5 l23 17 -22 -7 c-23 -6 -23 -6 -23 99 0 116 5 126
67 126 54 0 62 -15 65 -128 2 -56 1 -102 -2 -102 -3 0 -20 4 -37 9 -18 5 -35
6 -38 1 -3 -4 10 -10 28 -12 17 -3 39 -7 47 -9 13 -3 15 14 18 108 3 110 2
112 -23 129 -18 12 -36 14 -67 10 -53 -8 -72 -8 -123 -1 -24 3 -50 0 -65 -7z
m103 -12 c14 -11 17 -30 17 -112 l0 -99 -65 0 -65 0 0 102 c0 87 3 104 18 112
24 14 74 13 95 -3z"/>
<path d="M2800 861 c-5 -11 -10 -58 -10 -105 0 -114 2 -116 135 -116 133 0
135 2 135 116 0 103 -9 124 -53 123 l-32 -1 30 -7 30 -6 0 -105 0 -105 -89 -3
c-143 -5 -137 -10 -134 111 l3 102 30 6 30 7 -32 1 c-23 1 -35 -5 -43 -18z"/>
<path d="M1916 177 c-10 -7 -16 -22 -14 -33 3 -19 24 -19 1050 -22 l1047 -2 7
22 c15 49 44 48 -1051 48 -829 0 -1025 -2 -1039 -13z"/>
</g>
</svg>
