<?xml version="1.0" standalone="no"?>
<!DOCTYPE svg PUBLIC "-//W3C//DTD SVG 20010904//EN"
 "http://www.w3.org/TR/2001/REC-SVG-20010904/DTD/svg10.dtd">
<svg version="1.0" xmlns="http://www.w3.org/2000/svg"
 width="591.000000pt" height="1280.000000pt" viewBox="0 0 591.000000 1280.000000"
 preserveAspectRatio="xMidYMid meet">

<g transform="translate(0.000000,1280.000000) scale(0.100000,-0.100000)"
fill="#000000" stroke="none">
<path d="M463 12513 c-13 -8 -23 -23 -23 -31 0 -12 3 -13 12 -4 22 22 28 12
28 -48 0 -47 3 -60 15 -60 12 0 15 16 15 80 0 86 -5 93 -47 63z"/>
<path d="M574 12516 c-28 -21 -28 -121 0 -142 48 -35 96 1 96 71 0 70 -48 106
-96 71z m55 -20 c7 -8 11 -34 9 -58 -3 -38 -6 -43 -28 -43 -22 0 -25 5 -28 43
-3 40 10 72 28 72 4 0 13 -6 19 -14z"/>
<path d="M795 12469 c-21 -33 -34 -63 -31 -66 3 -4 22 -7 41 -7 21 -1 35 -6
35 -13 0 -17 18 -16 36 1 16 17 19 36 4 36 -5 0 -10 25 -10 55 0 48 -3 55 -19
55 -13 0 -32 -20 -56 -61z m45 -14 c0 -31 -3 -35 -25 -35 l-25 0 22 35 c13 19
24 35 26 35 1 0 2 -16 2 -35z"/>
<path d="M937 12512 c-10 -10 -17 -22 -17 -25 0 -12 21 -7 37 8 18 19 37 15
41 -9 2 -11 -4 -19 -17 -23 -27 -7 -27 -16 2 -28 31 -14 28 -39 -5 -43 -16 -2
-28 1 -28 7 0 6 -7 11 -15 11 -20 0 -19 -13 3 -33 25 -23 58 -21 82 3 24 24
25 34 4 55 -13 12 -14 19 -5 28 17 17 13 45 -8 57 -29 15 -56 12 -74 -8z"/>
<path d="M5038 12516 c-49 -26 -50 -27 -38 -42 10 -11 16 -11 37 3 31 20 106
20 137 -1 21 -13 26 -13 36 -1 30 37 -116 72 -172 41z"/>
<path d="M702 12488 c6 -18 28 -21 28 -4 0 9 -7 16 -16 16 -9 0 -14 -5 -12
-12z"/>
<path d="M5324 12486 c-11 -28 0 -91 16 -91 11 0 16 14 18 53 2 42 0 52 -13
52 -9 0 -18 -6 -21 -14z"/>
<path d="M4800 12430 c0 -57 1 -60 25 -60 24 0 25 3 25 60 0 57 -1 60 -25 60
-24 0 -25 -3 -25 -60z"/>
<path d="M5055 12456 c-28 -21 -7 -43 25 -26 17 9 29 9 51 -1 34 -14 48 -6 33
19 -14 22 -83 28 -109 8z"/>
<path d="M4737 12453 c-4 -3 -7 -24 -7 -45 0 -34 3 -38 25 -38 23 0 25 4 25
45 0 37 -3 45 -18 45 -10 0 -22 -3 -25 -7z"/>
<path d="M4660 12400 c0 -25 4 -30 25 -30 21 0 25 5 25 30 0 25 -4 30 -25 30
-21 0 -25 -5 -25 -30z"/>
<path d="M707 12414 c-8 -8 1 -24 14 -24 5 0 9 7 9 15 0 15 -12 20 -23 9z"/>
<path d="M5080 12403 c0 -4 5 -15 10 -23 7 -11 14 -12 26 -5 9 6 16 15 16 20
-2 12 -52 20 -52 8z"/>
<path d="M5520 11979 c0 -8 5 -20 12 -27 9 -9 6 -12 -16 -12 -33 0 -82 -45
-92 -84 -7 -30 9 -77 36 -101 24 -22 91 -30 119 -15 37 19 78 100 51 100 -5 0
-10 -7 -10 -16 0 -8 -13 -29 -29 -45 -37 -36 -79 -38 -117 -5 -56 47 -19 146
53 146 25 0 26 0 8 -20 -30 -33 -7 -37 25 -4 l30 30 -35 34 c-23 22 -35 29
-35 19z"/>
<path d="M1742 11938 c-7 -7 -12 -25 -12 -40 0 -15 -4 -28 -10 -28 -5 0 -10
-22 -10 -50 0 -44 3 -50 24 -56 14 -3 42 -3 63 0 21 3 40 5 42 6 11 1 -9 133
-23 155 -18 27 -54 33 -74 13z m56 -41 c3 -23 0 -27 -22 -27 -21 0 -26 5 -26
23 0 13 3 27 7 31 15 14 38 0 41 -27z"/>
<path d="M3270 11921 c0 -28 -2 -29 -33 -24 -24 3 -37 0 -47 -12 -18 -21 -18
-78 -1 -99 16 -19 52 -21 69 -4 9 9 12 9 12 0 0 -7 5 -12 10 -12 6 0 10 37 10
90 0 53 -4 90 -10 90 -5 0 -10 -13 -10 -29z m-10 -55 c26 -32 -7 -87 -44 -73
-16 6 -23 66 -9 80 11 12 40 8 53 -7z"/>
<path d="M461 11918 c-4 -13 -18 -49 -30 -81 -24 -67 -24 -67 -11 -67 6 0 15
11 20 25 8 20 16 25 45 25 29 0 36 -4 41 -25 3 -14 12 -25 20 -25 10 0 6 20
-16 81 -17 44 -30 82 -30 85 0 15 -32 0 -39 -18z m49 -74 c0 -2 -11 -4 -25 -4
-28 0 -30 8 -13 45 l12 26 13 -32 c7 -17 13 -33 13 -35z"/>
<path d="M2100 11916 c0 -8 -6 -17 -12 -19 -10 -4 -10 -7 -1 -14 6 -5 13 -28
15 -52 3 -44 28 -75 45 -57 4 5 2 11 -4 13 -8 3 -13 22 -13 48 0 25 5 46 13
49 10 5 10 7 0 12 -7 3 -13 12 -13 20 0 8 -7 14 -15 14 -8 0 -15 -6 -15 -14z"/>
<path d="M2890 11916 c0 -8 -6 -17 -12 -19 -10 -4 -10 -7 -1 -14 6 -5 13 -31
15 -58 3 -43 6 -50 26 -53 12 -2 22 1 22 7 0 6 -7 11 -15 11 -11 0 -15 12 -15
45 0 33 4 45 15 45 8 0 15 5 15 10 0 6 -7 10 -15 10 -8 0 -15 7 -15 15 0 8 -4
15 -10 15 -5 0 -10 -6 -10 -14z"/>
<path d="M1977 11882 c-36 -40 -9 -112 42 -112 16 0 34 7 41 15 18 21 6 29
-19 13 -15 -9 -26 -10 -38 -2 -34 21 -26 34 21 34 41 0 46 2 46 23 0 13 -5 28
-12 35 -18 18 -63 14 -81 -6z m71 -19 c2 -9 -8 -13 -33 -13 -33 0 -36 2 -25
15 15 18 51 16 58 -2z"/>
<path d="M2186 11884 c-21 -20 -20 -78 1 -99 11 -11 26 -15 45 -11 25 5 28 3
28 -19 0 -14 5 -25 10 -25 6 0 10 34 10 83 l0 84 -39 1 c-25 1 -46 -4 -55 -14z
m70 -28 c9 -38 -4 -68 -28 -64 -28 4 -42 29 -34 61 9 37 53 38 62 3z"/>
<path d="M2443 11893 c-26 -10 -12 -22 21 -16 24 4 35 1 39 -10 4 -12 -4 -17
-33 -22 -42 -7 -56 -26 -40 -55 8 -15 20 -19 55 -18 l45 2 0 44 c0 58 -14 82
-48 81 -15 0 -33 -3 -39 -6z m55 -80 c-4 -22 -48 -31 -48 -10 0 19 10 27 32
27 13 0 18 -6 16 -17z"/>
<path d="M2560 11834 c0 -77 18 -86 22 -11 3 45 6 52 26 55 19 3 22 -1 23 -35
2 -60 3 -66 16 -70 8 -3 13 13 15 49 3 46 6 53 26 56 21 3 22 0 22 -52 0 -32
4 -56 10 -56 7 0 10 24 8 63 l-3 62 -82 1 -83 1 0 -63z"/>
<path d="M2773 11893 c-7 -2 -13 -15 -13 -28 0 -18 8 -26 35 -35 19 -6 35 -16
35 -21 0 -16 -32 -23 -51 -10 -15 9 -19 8 -19 -4 0 -19 48 -31 69 -18 9 6 16
21 16 34 0 18 -8 25 -32 33 -47 13 -45 40 2 33 19 -3 35 -2 35 3 0 16 -49 25
-77 13z"/>
<path d="M2977 11882 c-21 -23 -22 -61 -1 -90 17 -25 51 -29 80 -8 25 19 12
31 -15 14 -15 -9 -26 -10 -38 -2 -34 21 -26 34 21 34 42 0 46 2 46 25 0 43
-63 61 -93 27z m71 -19 c2 -9 -8 -13 -33 -13 -33 0 -36 2 -25 15 15 18 51 16
58 -2z"/>
<path d="M3095 11890 c-1 -3 -2 -29 -1 -59 1 -74 26 -84 26 -11 0 43 3 53 20
57 31 8 23 22 -11 20 -17 -1 -32 -4 -34 -7z"/>
<path d="M3330 11885 c-10 -13 -7 -14 25 -12 50 3 55 -17 8 -29 -31 -7 -39
-14 -41 -36 -3 -29 9 -35 71 -36 26 0 27 2 27 52 0 29 -5 57 -12 64 -17 17
-63 15 -78 -3z m70 -63 c0 -14 -23 -32 -42 -32 -18 0 -25 20 -11 33 9 10 53 9
53 -1z"/>
<path d="M3450 11833 c0 -35 4 -63 10 -63 6 0 10 19 10 43 0 51 11 70 36 65
15 -2 20 -14 22 -56 4 -67 20 -67 24 1 3 45 6 52 26 55 21 3 22 0 22 -52 0
-43 3 -56 15 -56 18 0 21 63 5 104 -10 27 -52 37 -65 16 -4 -7 -11 -8 -18 -1
-7 5 -29 9 -49 8 l-38 -1 0 -63z"/>
<path d="M3726 11884 c-34 -34 -7 -114 38 -114 25 0 64 25 54 35 -3 3 -16 0
-27 -7 -29 -18 -56 0 -56 37 0 37 27 55 56 37 25 -16 37 -8 19 13 -16 20 -64
19 -84 -1z"/>
<path d="M3862 11888 c-7 -7 -12 -31 -12 -55 0 -44 17 -63 58 -63 45 0 70 80
36 114 -18 19 -65 21 -82 4z m74 -35 c9 -34 -7 -58 -37 -58 -19 0 -25 6 -27
28 -5 41 4 57 32 57 19 0 27 -7 32 -27z"/>
<path d="M3990 11834 c0 -77 18 -86 22 -11 3 45 6 52 26 55 21 3 22 0 22 -52
0 -31 5 -56 10 -56 6 0 10 19 10 43 0 51 11 70 36 65 15 -2 20 -14 22 -56 2
-28 7 -52 13 -52 14 0 11 107 -3 117 -7 4 -46 9 -85 9 l-73 1 0 -63z"/>
<path d="M312 11833 c-22 -58 -20 -82 2 -50 16 21 56 23 56 2 0 -8 7 -15 15
-15 12 0 10 11 -7 60 -12 33 -27 60 -34 60 -6 0 -21 -26 -32 -57z m36 -12
c-15 -5 -19 4 -11 24 6 18 7 18 13 -1 4 -10 3 -21 -2 -23z"/>
<path d="M2320 11840 c0 -5 16 -10 35 -10 19 0 35 5 35 10 0 6 -16 10 -35 10
-19 0 -35 -4 -35 -10z"/>
<path d="M3662 11789 c2 -6 8 -10 13 -10 5 0 11 4 13 10 2 6 -4 11 -13 11 -9
0 -15 -5 -13 -11z"/>
<path d="M5360 11229 c-116 -35 -169 -166 -108 -270 71 -120 249 -119 317 1
28 49 28 127 1 180 -35 68 -135 111 -210 89z m74 -135 c30 -30 13 -104 -24
-104 -21 0 -50 35 -50 60 0 22 28 60 45 60 7 0 21 -7 29 -16z"/>
<path d="M5384 11076 c-11 -28 1 -61 22 -64 25 -4 37 19 28 54 -7 27 -41 33
-50 10z"/>
<path d="M3088 11154 c-57 -30 -65 -98 -18 -145 27 -28 34 -29 91 -26 l63 3 3
50 c4 70 -3 92 -40 114 -38 24 -62 25 -99 4z m82 -44 c24 -24 29 -70 5 -50
-21 17 -51 -6 -34 -26 9 -11 7 -14 -13 -14 -13 0 -29 5 -36 12 -29 29 -1 98
40 98 10 0 27 -9 38 -20z"/>
<path d="M2500 11070 l0 -90 70 0 c63 0 70 2 70 20 0 17 -7 20 -50 20 -43 0
-50 3 -50 20 0 17 7 20 45 20 33 0 45 4 45 15 0 11 -12 15 -45 15 -38 0 -45 3
-45 20 0 17 7 20 50 20 38 0 50 4 50 15 0 12 -14 15 -70 15 l-70 0 0 -90z"/>
<path d="M2770 11145 c0 -9 9 -15 25 -15 24 0 25 -2 25 -75 0 -68 2 -75 20
-75 18 0 20 7 20 75 l0 75 30 0 c20 0 30 5 30 15 0 12 -15 15 -75 15 -60 0
-75 -3 -75 -15z"/>
<path d="M300 11125 c0 -12 20 -15 120 -15 100 0 120 3 120 15 0 13 -20 15
-120 15 -100 0 -120 -2 -120 -15z"/>
<path d="M300 11055 c0 -12 20 -15 120 -15 100 0 120 3 120 15 0 13 -20 15
-120 15 -100 0 -120 -2 -120 -15z"/>
<path d="M3370 11000 c0 -13 7 -20 20 -20 13 0 20 7 20 20 0 13 -7 20 -20 20
-13 0 -20 -7 -20 -20z"/>
<path d="M300 10980 c0 -6 47 -10 120 -10 73 0 120 4 120 10 0 6 -47 10 -120
10 -73 0 -120 -4 -120 -10z"/>
<path d="M4150 6940 c-63 -5 -51 -7 72 -8 89 -1 149 2 153 8 7 11 -97 11 -225
0z"/>
<path d="M3808 6923 c12 -2 30 -2 40 0 9 3 -1 5 -23 4 -22 0 -30 -2 -17 -4z"/>
<path d="M0 4389 l0 -801 28 7 c15 4 81 18 147 31 66 13 159 32 207 42 88 18
108 15 108 -15 0 -7 -10 -15 -22 -17 -50 -11 -185 -36 -223 -42 -22 -3 -47 -7
-55 -8 -8 -1 -33 -6 -55 -10 -22 -3 -53 -8 -70 -10 -70 -9 -65 20 -65 -373 0
-334 1 -355 18 -347 9 4 111 39 227 79 218 74 284 100 423 167 46 22 85 38 86
36 7 -7 78 -142 156 -293 46 -88 83 -161 84 -162 2 -3 1079 -5 1794 -4 l492 1
0 33 c0 81 42 329 85 498 26 102 50 191 54 197 7 12 65 11 708 -14 94 -4 176
-10 182 -13 6 -4 16 -137 25 -340 10 -221 19 -337 27 -347 11 -13 89 -21 89
-8 0 3 -5 14 -11 25 -10 20 -40 636 -31 653 6 11 262 4 972 -24 278 -11 511
-20 518 -20 9 0 12 195 12 940 l0 940 -2955 0 -2955 0 0 -801z m1716 -281
c-10 -6 -20 -7 -24 -3 -9 8 20 25 31 18 5 -3 2 -10 -7 -15z m474 -107 c-8 -5
-111 -32 -229 -61 -163 -39 -216 -49 -222 -39 -15 25 3 36 79 48 42 7 133 23
202 36 134 24 196 30 170 16z m190 -59 c0 -5 -9 -42 -19 -83 -11 -41 -33 -174
-51 -294 -17 -121 -56 -368 -86 -548 -29 -181 -54 -331 -54 -335 -2 -42 -214
489 -297 742 -46 142 -83 260 -81 261 2 2 41 16 88 33 144 51 336 141 411 193
44 31 89 46 89 31z"/>
<path d="M2335 2325 c2 -77 15 -120 15 -48 0 44 18 67 44 57 11 -4 16 -19 16
-50 0 -24 5 -44 10 -44 6 0 10 18 10 39 0 48 -23 75 -56 67 -21 -6 -24 -3 -24
24 0 16 -4 30 -8 30 -5 0 -8 -34 -7 -75z"/>
<path d="M2800 2322 l0 -79 37 -1 c47 -2 63 12 63 54 0 37 -27 59 -60 49 -17
-5 -20 -2 -20 24 0 17 -4 31 -10 31 -6 0 -10 -33 -10 -78z m75 2 c30 -31 0
-86 -39 -71 -28 11 -15 87 15 87 4 0 15 -7 24 -16z"/>
<path d="M1538 2384 c-5 -4 -8 -38 -8 -76 l0 -68 48 2 c42 1 43 2 10 5 l-37 4
-3 70 c-2 39 -6 67 -10 63z"/>
<path d="M1648 2380 c19 -8 22 -17 24 -77 l2 -68 5 70 c6 63 8 70 31 76 17 5
8 7 -30 7 -42 1 -50 -1 -32 -8z"/>
<path d="M1841 2376 c-21 -26 -25 -83 -7 -111 19 -29 66 -34 87 -8 21 24 16
103 -6 120 -24 17 -59 17 -74 -1z m64 -12 c21 -22 17 -93 -7 -108 -29 -18 -53
4 -56 51 -3 39 15 73 38 73 5 0 16 -7 25 -16z"/>
<path d="M1974 2369 c-19 -22 -19 -22 4 -10 22 12 22 11 22 -54 0 -37 4 -65
10 -65 11 0 13 91 4 128 -8 28 -16 28 -40 1z"/>
<path d="M2127 2358 c12 -60 30 -112 40 -115 5 -2 16 21 23 51 7 31 16 53 21
51 4 -3 12 -27 19 -55 7 -27 16 -50 21 -50 5 0 16 26 25 58 8 31 18 65 20 75
3 9 1 17 -4 17 -5 0 -14 -25 -21 -55 -7 -30 -16 -53 -21 -50 -4 3 -13 27 -20
55 -7 27 -15 50 -20 50 -4 0 -15 -27 -24 -60 -9 -33 -19 -60 -21 -60 -2 0 -9
25 -15 55 -6 30 -15 57 -21 60 -5 4 -6 -8 -2 -27z"/>
<path d="M3120 2315 l0 -75 48 2 47 1 -43 4 c-40 4 -43 6 -40 31 2 21 9 28 33
31 l30 4 -30 6 c-24 5 -30 11 -30 31 0 21 6 26 35 31 l35 6 -42 2 -43 1 0 -75z"/>
<path d="M3253 2378 c26 -9 27 -13 27 -74 0 -36 4 -64 10 -64 6 0 10 28 10 63
0 56 3 65 23 75 18 9 12 11 -38 11 -52 -1 -56 -2 -32 -11z"/>
<path d="M3382 2367 c-47 -50 -15 -127 51 -127 18 0 39 -6 46 -12 11 -11 12
-9 7 9 -4 12 -2 24 4 28 5 3 10 24 10 45 0 72 -72 106 -118 57z m71 4 c29 -11
41 -49 27 -86 -9 -23 -13 -25 -25 -15 -13 11 -14 10 -9 -4 4 -11 1 -16 -12
-16 -60 1 -80 88 -27 119 22 13 17 13 46 2z"/>
<path d="M3894 2382 c-24 -16 -47 -79 -34 -92 3 -3 10 -14 16 -25 14 -25 66
-32 84 -10 7 8 10 19 6 23 -4 4 -12 -1 -17 -11 -12 -20 -40 -22 -57 -5 -18 18
-15 26 11 31 l22 4 -22 2 c-32 2 -29 19 5 24 l27 4 -27 2 c-32 1 -35 12 -12
35 20 20 29 20 49 0 20 -20 33 -11 15 11 -13 16 -47 20 -66 7z"/>
<path d="M4022 2378 c-7 -7 -12 -18 -12 -26 0 -9 7 -6 18 9 12 14 25 20 35 16
28 -11 19 -45 -24 -92 l-42 -45 54 2 c44 1 47 2 16 5 l-38 4 35 40 c49 54 45
99 -9 99 -12 0 -26 -5 -33 -12z"/>
<path d="M4152 2378 c-20 -20 -13 -32 8 -13 10 9 26 15 35 12 23 -9 18 -42 -7
-55 -17 -8 -18 -11 -7 -11 27 -1 44 -28 29 -46 -17 -20 -47 -19 -59 2 -5 10
-13 15 -17 11 -14 -14 19 -38 52 -38 28 0 35 5 40 25 4 15 1 32 -6 40 -10 12
-10 18 -1 29 29 35 -35 76 -67 44z"/>
<path d="M4282 2378 c-34 -34 1 -93 48 -83 25 6 28 4 23 -15 -7 -27 -30 -37
-54 -22 -25 16 -30 15 -23 -3 9 -23 71 -20 84 4 15 30 12 97 -6 115 -18 19
-55 21 -72 4z m52 -4 c10 -4 16 -18 16 -35 0 -25 -4 -29 -29 -29 -32 0 -45 25
-29 54 10 17 18 19 42 10z"/>
<path d="M2528 2359 c-2 -6 -1 -34 2 -62 4 -47 8 -52 30 -54 14 -1 18 0 8 3
-14 4 -18 16 -18 50 0 25 5 44 11 44 6 0 4 7 -5 15 -17 18 -23 19 -28 4z"/>
<path d="M2473 2295 c0 -33 2 -45 4 -27 2 18 2 45 0 60 -2 15 -4 0 -4 -33z"/>
<path d="M2620 2330 c-38 -38 -15 -90 40 -90 29 0 48 15 35 28 -3 3 -10 1 -14
-7 -11 -18 -55 -10 -59 12 -3 14 4 17 37 17 34 0 41 3 41 20 0 18 -26 40 -49
40 -6 0 -20 -9 -31 -20z m58 -13 c3 -13 -3 -17 -27 -17 -33 0 -39 8 -19 28 17
17 42 11 46 -11z"/>
<path d="M2930 2346 c0 -2 9 -25 20 -50 14 -35 17 -53 10 -71 -5 -14 -6 -25
-1 -25 10 0 65 139 58 146 -3 3 -11 -11 -18 -30 -16 -44 -23 -45 -39 -6 -11
27 -30 50 -30 36z"/>
<path d="M3643 2293 c26 -2 67 -2 90 0 23 2 2 3 -48 3 -49 0 -68 -1 -42 -3z"/>
<path d="M3000 1700 l0 -310 1305 0 1305 0 0 310 0 310 -1305 0 -1305 0 0
-310z m1120 0 c0 -40 -4 -70 -10 -70 -6 0 -10 30 -10 70 0 40 4 70 10 70 6 0
10 -30 10 -70z m497 44 c-9 -9 -28 6 -21 18 4 6 10 6 17 -1 6 -6 8 -13 4 -17z
m-670 1 c3 -9 2 -19 -2 -23 -4 -4 -10 -1 -12 6 -6 16 -43 16 -43 -1 0 -7 15
-17 32 -22 35 -11 47 -37 28 -60 -16 -20 -64 -19 -80 0 -16 19 -5 34 12 17 7
-7 20 -12 31 -12 27 0 17 33 -12 40 -33 8 -49 34 -32 54 17 21 70 21 78 1z
m461 -12 c12 -12 13 -18 4 -21 -18 -6 -15 -53 6 -69 16 -12 15 -13 -8 -11 -21
3 -26 9 -31 48 -6 42 -3 70 8 70 2 0 12 -8 21 -17z m-357 -13 c10 -6 19 -20
19 -30 0 -16 -7 -20 -36 -20 -31 0 -35 -2 -24 -15 9 -11 17 -12 32 -4 22 12
34 6 23 -10 -9 -15 -58 -14 -73 1 -17 17 -15 54 4 72 18 19 28 20 55 6z m173
-6 c27 -27 20 -44 -19 -44 -32 0 -52 -18 -22 -21 17 -2 20 -1 42 7 18 7 18 6
6 -9 -16 -20 -52 -22 -69 -5 -18 18 -15 65 6 77 24 15 38 13 56 -5z m116 1
c17 -20 5 -32 -15 -15 -13 11 -19 11 -31 -2 -19 -18 -8 -48 17 -48 10 0 19 5
19 10 0 6 5 10 10 10 22 0 8 -30 -17 -36 -33 -9 -57 6 -61 38 -6 47 50 77 78
43z m221 -2 c13 -15 11 -16 -13 -9 -16 3 -28 2 -28 -3 0 -5 12 -12 26 -15 19
-5 25 -12 22 -29 -4 -28 -62 -38 -71 -13 -7 18 13 22 30 5 8 -8 13 -8 17 0 4
6 -3 15 -17 20 -33 13 -42 28 -27 46 16 20 44 19 61 -2z m59 -33 c0 -27 -4
-50 -10 -50 -5 0 -10 23 -10 50 0 28 5 50 10 50 6 0 10 -22 10 -50z m100 43
c0 -5 -9 -19 -20 -33 -25 -32 -25 -40 0 -40 11 0 20 -4 20 -10 0 -5 -18 -10
-41 -10 -43 0 -43 0 -7 53 l19 27 -26 0 c-15 0 -24 4 -20 10 7 12 75 14 75 3z
m91 -3 c10 -6 19 -20 19 -30 0 -16 -7 -20 -36 -20 -31 0 -35 -2 -24 -15 9 -11
17 -12 32 -4 22 12 34 6 23 -10 -9 -15 -58 -14 -73 1 -17 17 -15 54 4 72 18
19 28 20 55 6z"/>
<path d="M4010 1700 c0 -5 9 -10 21 -10 11 0 17 5 14 10 -3 6 -13 10 -21 10
-8 0 -14 -4 -14 -10z"/>
<path d="M4175 1700 c-4 -6 5 -10 20 -10 15 0 24 4 20 10 -3 6 -12 10 -20 10
-8 0 -17 -4 -20 -10z"/>
<path d="M4770 1700 c0 -5 9 -10 21 -10 11 0 17 5 14 10 -3 6 -13 10 -21 10
-8 0 -14 -4 -14 -10z"/>
<path d="M790 1710 c0 -73 17 -98 22 -32 2 29 7 37 23 37 16 0 21 -8 23 -37 4
-46 22 -51 22 -5 0 45 -13 61 -44 55 -23 -5 -26 -2 -26 23 0 16 -4 29 -10 29
-6 0 -10 -30 -10 -70z"/>
<path d="M610 1753 c0 -31 26 -107 38 -111 6 -2 16 15 23 37 14 47 24 46 33
-4 10 -50 31 -44 45 13 7 26 14 55 17 65 3 9 1 17 -5 17 -5 0 -16 -21 -24 -47
l-14 -48 -13 48 c-7 26 -16 47 -21 47 -5 0 -15 -21 -23 -47 l-14 -48 -13 48
c-13 47 -29 63 -29 30z"/>
<path d="M910 1760 c0 -5 5 -10 10 -10 6 0 10 5 10 10 0 6 -4 10 -10 10 -5 0
-10 -4 -10 -10z"/>
<path d="M968 1739 c-2 -7 -1 -30 2 -53 4 -30 10 -42 25 -44 16 -3 18 -1 8 9
-16 16 -17 69 -2 69 6 0 4 7 -5 15 -18 18 -23 19 -28 4z"/>
<path d="M910 1685 c0 -25 5 -45 10 -45 6 0 10 20 10 45 0 25 -4 45 -10 45 -5
0 -10 -20 -10 -45z"/>
<path d="M1040 1715 c-10 -12 -11 -24 -4 -43 8 -22 16 -27 43 -27 20 0 36 6
39 13 3 11 0 12 -18 2 -18 -10 -25 -9 -38 4 -15 15 -13 16 22 16 33 0 37 3 34
23 -4 28 -58 37 -78 12z m58 -12 c2 -8 -5 -13 -17 -13 -12 0 -21 6 -21 16 0
18 31 15 38 -3z"/>
<path d="M2616 1705 c9 -14 20 -25 24 -25 4 0 15 11 24 25 l16 25 -40 0 -40 0
16 -25z"/>
<path d="M2890 945 c-13 -14 -19 -25 -13 -25 6 0 13 7 17 15 15 39 26 7 29
-82 l3 -98 2 98 c1 53 5 97 9 97 3 0 16 -8 27 -17 15 -13 14 -10 -3 10 -30 33
-41 34 -71 2z"/>
<path d="M5270 941 c-11 -21 -14 -179 -4 -205 3 -8 21 -18 40 -22 26 -5 34
-11 34 -28 0 -12 5 -27 12 -34 16 -16 210 -16 226 0 17 17 16 212 0 226 -7 5
-24 12 -38 14 -18 2 -26 10 -29 28 -1 14 -8 28 -15 32 -6 4 -57 8 -113 8 -91
0 -103 -2 -113 -19z m228 -23 l3 -28 -68 0 c-40 0 -74 -5 -81 -12 -7 -7 -12
-40 -12 -80 l0 -68 -30 0 -30 0 0 103 c0 57 3 107 7 111 4 4 52 5 107 4 l101
-3 3 -27z m70 -50 c17 -17 17 -204 0 -211 -26 -9 -192 -6 -205 5 -17 14 -18
189 -1 206 8 8 46 12 103 12 57 0 95 -4 103 -12z"/>
<path d="M422 867 l-62 -63 65 -64 c35 -35 67 -62 69 -59 3 3 -21 32 -54 64
l-60 59 62 63 c34 35 58 63 52 63 -5 0 -38 -28 -72 -63z"/>
<path d="M4050 918 c-24 -13 -25 -16 -25 -128 0 -97 2 -114 15 -111 41 12 95
12 116 1 19 -11 26 -11 38 0 14 11 75 11 116 -1 13 -3 15 14 18 108 3 110 2
112 -23 129 -18 12 -36 14 -67 10 -53 -8 -72 -8 -123 -1 -24 3 -50 0 -65 -7z
m101 -8 c17 -10 19 -22 19 -113 l0 -102 -65 0 -65 0 0 102 c0 87 3 104 18 112
22 13 68 14 93 1z m140 0 c17 -10 19 -22 19 -113 l0 -102 -65 0 -65 0 0 102
c0 87 3 104 18 112 22 13 68 14 93 1z"/>
<path d="M2800 861 c-5 -11 -10 -58 -10 -105 0 -114 2 -116 135 -116 133 0
135 2 135 116 0 103 -9 124 -53 123 l-32 -1 30 -7 30 -6 0 -105 0 -105 -90 -3
c-143 -5 -136 -10 -133 111 l3 102 30 6 30 7 -32 1 c-23 1 -35 -5 -43 -18z"/>
<path d="M1910 175 c-6 -8 -10 -22 -8 -32 3 -17 52 -18 1050 -21 l1047 -2 7
22 c15 49 44 48 -1057 48 -885 0 -1028 -2 -1039 -15z"/>
</g>
</svg>
